ISO-10303-21;
HEADER;
/* Generated by software containing ST-Developer
 * from STEP Tools, Inc. (www.steptools.com) 
 */
/* OPTION: using custom renumber hook */

FILE_DESCRIPTION(
/* description */ ('STEP AP242 Edition 2',
'CAx-IF Rec.Pracs.---Representation and Presentation of Product Manufa
cturing Information (PMI)---4.0---2014-10-13',
'CAx-IF Rec.Pracs.---3D Tessellated Geometry---0.4---2014-09-14','2;1',
'CAx-IF Rec.Pracs.---User Defined Attributes---1.5---2016-08-15'),
/* implementation_level */ '2;1');

FILE_NAME(
/* name */ 'Part Studio 1',
/* time_stamp */ '2026-08-18T15:07:17Z',
/* author */ (''),
/* organization */ (''),
/* preprocessor_version */ 'ST-DEVELOPER v20',
/* originating_system */ 'ONSHAPE BY PTC INC, 1.219',
/* authorisation */ '  ');

FILE_SCHEMA (('AP242_MANAGED_MODEL_BASED_3D_ENGINEERING_MIM_LF { 1 0 10303 442 3 1 4 }'));
ENDSEC;

DATA;
#10=SHAPE_REPRESENTATION_RELATIONSHIP('','',#907,#11);
#11=ADVANCED_BREP_SHAPE_REPRESENTATION('',(#905),#1575);
#12=ELLIPSE('',#918,0.0172763114494309,0.003);
#13=ELLIPSE('',#919,0.0172763114494309,0.003);
#14=ELLIPSE('',#920,0.0172763114494309,0.003);
#15=ELLIPSE('',#921,0.0172763114494309,0.003);
#16=ELLIPSE('',#922,0.0172763114494309,0.003);
#17=ELLIPSE('',#926,0.0172763114494309,0.003);
#18=ELLIPSE('',#927,0.0172763114494309,0.003);
#19=ELLIPSE('',#929,0.0172763114494309,0.003);
#20=ELLIPSE('',#930,0.0172763114494309,0.003);
#21=ELLIPSE('',#931,0.0172763114494309,0.003);
#22=ELLIPSE('',#932,0.0172763114494309,0.003);
#23=ELLIPSE('',#935,0.0172763114494309,0.003);
#24=ELLIPSE('',#936,0.0172763114494309,0.003);
#25=ELLIPSE('',#937,0.0172763114494309,0.003);
#26=ELLIPSE('',#938,0.0172763114494309,0.003);
#27=ELLIPSE('',#944,0.00547083195898645,0.00095);
#28=ELLIPSE('',#945,0.00547083195898645,0.00095);
#29=ELLIPSE('',#946,0.00547083195898645,0.00095);
#30=ELLIPSE('',#947,0.00547083195898645,0.00095);
#31=ELLIPSE('',#948,0.00547083195898645,0.00095);
#32=ELLIPSE('',#953,0.00547083195898645,0.00095);
#33=ELLIPSE('',#954,0.00547083195898645,0.00095);
#34=ELLIPSE('',#955,0.00547083195898645,0.00095);
#35=ELLIPSE('',#956,0.00547083195898645,0.00095);
#36=ELLIPSE('',#957,0.00547083195898645,0.00095);
#37=ELLIPSE('',#965,0.0172763114494309,0.003);
#38=ELLIPSE('',#966,0.0172763114494309,0.003);
#39=ELLIPSE('',#967,0.0172763114494309,0.003);
#40=ELLIPSE('',#968,0.0172763114494309,0.003);
#41=ELLIPSE('',#977,0.00547083195898645,0.00095);
#42=ELLIPSE('',#978,0.00547083195898645,0.00095);
#43=ELLIPSE('',#979,0.00547083195898645,0.00095);
#44=ELLIPSE('',#980,0.00547083195898645,0.00095);
#45=ELLIPSE('',#984,0.00547083195898645,0.00095);
#46=ELLIPSE('',#985,0.00547083195898645,0.00095);
#47=ELLIPSE('',#986,0.00547083195898645,0.00095);
#48=ELLIPSE('',#987,0.00547083195898645,0.00095);
#49=CYLINDRICAL_SURFACE('',#916,0.003);
#50=CYLINDRICAL_SURFACE('',#924,0.003);
#51=CYLINDRICAL_SURFACE('',#933,0.003);
#52=CYLINDRICAL_SURFACE('',#942,0.00095);
#53=CYLINDRICAL_SURFACE('',#951,0.00095);
#54=CYLINDRICAL_SURFACE('',#963,0.003);
#55=CYLINDRICAL_SURFACE('',#976,0.00095);
#56=CYLINDRICAL_SURFACE('',#983,0.00095);
#57=CIRCLE('',#912,0.003);
#58=CIRCLE('',#913,0.003);
#59=CIRCLE('',#914,0.003);
#60=CIRCLE('',#915,0.003);
#61=CIRCLE('',#917,0.003);
#62=CIRCLE('',#923,0.003);
#63=CIRCLE('',#925,0.003);
#64=CIRCLE('',#928,0.003);
#65=CIRCLE('',#934,0.003);
#66=CIRCLE('',#939,0.003);
#67=CIRCLE('',#941,0.00095);
#68=CIRCLE('',#943,0.00095);
#69=CIRCLE('',#950,0.00095);
#70=CIRCLE('',#952,0.00095);
#71=CIRCLE('',#961,0.003);
#72=CIRCLE('',#964,0.003);
#73=CIRCLE('',#970,0.00095);
#74=CIRCLE('',#973,0.00095);
#75=CIRCLE('',#975,0.00095);
#76=CIRCLE('',#982,0.00095);
#77=ORIENTED_EDGE('',*,*,#323,.F.);
#78=ORIENTED_EDGE('',*,*,#324,.T.);
#79=ORIENTED_EDGE('',*,*,#325,.F.);
#80=ORIENTED_EDGE('',*,*,#326,.F.);
#81=ORIENTED_EDGE('',*,*,#327,.T.);
#82=ORIENTED_EDGE('',*,*,#328,.T.);
#83=ORIENTED_EDGE('',*,*,#329,.F.);
#84=ORIENTED_EDGE('',*,*,#330,.F.);
#85=ORIENTED_EDGE('',*,*,#331,.F.);
#86=ORIENTED_EDGE('',*,*,#332,.T.);
#87=ORIENTED_EDGE('',*,*,#333,.T.);
#88=ORIENTED_EDGE('',*,*,#327,.F.);
#89=ORIENTED_EDGE('',*,*,#334,.F.);
#90=ORIENTED_EDGE('',*,*,#335,.T.);
#91=ORIENTED_EDGE('',*,*,#336,.F.);
#92=ORIENTED_EDGE('',*,*,#337,.T.);
#93=ORIENTED_EDGE('',*,*,#338,.F.);
#94=ORIENTED_EDGE('',*,*,#339,.T.);
#95=ORIENTED_EDGE('',*,*,#340,.T.);
#96=ORIENTED_EDGE('',*,*,#326,.T.);
#97=ORIENTED_EDGE('',*,*,#341,.T.);
#98=ORIENTED_EDGE('',*,*,#342,.T.);
#99=ORIENTED_EDGE('',*,*,#343,.F.);
#100=ORIENTED_EDGE('',*,*,#344,.T.);
#101=ORIENTED_EDGE('',*,*,#345,.F.);
#102=ORIENTED_EDGE('',*,*,#346,.F.);
#103=ORIENTED_EDGE('',*,*,#347,.T.);
#104=ORIENTED_EDGE('',*,*,#348,.T.);
#105=ORIENTED_EDGE('',*,*,#342,.F.);
#106=ORIENTED_EDGE('',*,*,#349,.F.);
#107=ORIENTED_EDGE('',*,*,#350,.T.);
#108=ORIENTED_EDGE('',*,*,#351,.T.);
#109=ORIENTED_EDGE('',*,*,#352,.F.);
#110=ORIENTED_EDGE('',*,*,#335,.F.);
#111=ORIENTED_EDGE('',*,*,#353,.T.);
#112=ORIENTED_EDGE('',*,*,#354,.F.);
#113=ORIENTED_EDGE('',*,*,#355,.T.);
#114=ORIENTED_EDGE('',*,*,#356,.F.);
#115=ORIENTED_EDGE('',*,*,#357,.T.);
#116=ORIENTED_EDGE('',*,*,#358,.F.);
#117=ORIENTED_EDGE('',*,*,#359,.T.);
#118=ORIENTED_EDGE('',*,*,#360,.T.);
#119=ORIENTED_EDGE('',*,*,#361,.F.);
#120=ORIENTED_EDGE('',*,*,#362,.F.);
#121=ORIENTED_EDGE('',*,*,#363,.F.);
#122=ORIENTED_EDGE('',*,*,#339,.F.);
#123=ORIENTED_EDGE('',*,*,#364,.T.);
#124=ORIENTED_EDGE('',*,*,#365,.T.);
#125=ORIENTED_EDGE('',*,*,#366,.T.);
#126=ORIENTED_EDGE('',*,*,#367,.F.);
#127=ORIENTED_EDGE('',*,*,#368,.T.);
#128=ORIENTED_EDGE('',*,*,#369,.F.);
#129=ORIENTED_EDGE('',*,*,#367,.T.);
#130=ORIENTED_EDGE('',*,*,#370,.T.);
#131=ORIENTED_EDGE('',*,*,#371,.F.);
#132=ORIENTED_EDGE('',*,*,#372,.F.);
#133=ORIENTED_EDGE('',*,*,#373,.F.);
#134=ORIENTED_EDGE('',*,*,#374,.T.);
#135=ORIENTED_EDGE('',*,*,#375,.F.);
#136=ORIENTED_EDGE('',*,*,#376,.T.);
#137=ORIENTED_EDGE('',*,*,#377,.F.);
#138=ORIENTED_EDGE('',*,*,#375,.T.);
#139=ORIENTED_EDGE('',*,*,#378,.T.);
#140=ORIENTED_EDGE('',*,*,#379,.F.);
#141=ORIENTED_EDGE('',*,*,#380,.T.);
#142=ORIENTED_EDGE('',*,*,#381,.F.);
#143=ORIENTED_EDGE('',*,*,#382,.T.);
#144=ORIENTED_EDGE('',*,*,#383,.T.);
#145=ORIENTED_EDGE('',*,*,#384,.T.);
#146=ORIENTED_EDGE('',*,*,#344,.F.);
#147=ORIENTED_EDGE('',*,*,#385,.T.);
#148=ORIENTED_EDGE('',*,*,#337,.F.);
#149=ORIENTED_EDGE('',*,*,#386,.T.);
#150=ORIENTED_EDGE('',*,*,#387,.T.);
#151=ORIENTED_EDGE('',*,*,#388,.T.);
#152=ORIENTED_EDGE('',*,*,#387,.F.);
#153=ORIENTED_EDGE('',*,*,#389,.T.);
#154=ORIENTED_EDGE('',*,*,#358,.T.);
#155=ORIENTED_EDGE('',*,*,#390,.T.);
#156=ORIENTED_EDGE('',*,*,#391,.F.);
#157=ORIENTED_EDGE('',*,*,#355,.F.);
#158=ORIENTED_EDGE('',*,*,#392,.F.);
#159=ORIENTED_EDGE('',*,*,#329,.T.);
#160=ORIENTED_EDGE('',*,*,#393,.T.);
#161=ORIENTED_EDGE('',*,*,#394,.F.);
#162=ORIENTED_EDGE('',*,*,#395,.F.);
#163=ORIENTED_EDGE('',*,*,#383,.F.);
#164=ORIENTED_EDGE('',*,*,#396,.T.);
#165=ORIENTED_EDGE('',*,*,#397,.F.);
#166=ORIENTED_EDGE('',*,*,#351,.F.);
#167=ORIENTED_EDGE('',*,*,#398,.T.);
#168=ORIENTED_EDGE('',*,*,#324,.F.);
#169=ORIENTED_EDGE('',*,*,#399,.F.);
#170=ORIENTED_EDGE('',*,*,#366,.F.);
#171=ORIENTED_EDGE('',*,*,#400,.T.);
#172=ORIENTED_EDGE('',*,*,#377,.T.);
#173=ORIENTED_EDGE('',*,*,#345,.T.);
#174=ORIENTED_EDGE('',*,*,#401,.F.);
#175=ORIENTED_EDGE('',*,*,#332,.F.);
#176=ORIENTED_EDGE('',*,*,#402,.T.);
#177=ORIENTED_EDGE('',*,*,#403,.F.);
#178=ORIENTED_EDGE('',*,*,#394,.T.);
#179=ORIENTED_EDGE('',*,*,#404,.T.);
#180=ORIENTED_EDGE('',*,*,#405,.F.);
#181=ORIENTED_EDGE('',*,*,#406,.T.);
#182=ORIENTED_EDGE('',*,*,#401,.T.);
#183=ORIENTED_EDGE('',*,*,#369,.T.);
#184=ORIENTED_EDGE('',*,*,#352,.T.);
#185=ORIENTED_EDGE('',*,*,#407,.T.);
#186=ORIENTED_EDGE('',*,*,#361,.T.);
#187=ORIENTED_EDGE('',*,*,#408,.F.);
#188=ORIENTED_EDGE('',*,*,#409,.F.);
#189=ORIENTED_EDGE('',*,*,#410,.F.);
#190=ORIENTED_EDGE('',*,*,#411,.F.);
#191=ORIENTED_EDGE('',*,*,#412,.T.);
#192=ORIENTED_EDGE('',*,*,#413,.F.);
#193=ORIENTED_EDGE('',*,*,#409,.T.);
#194=ORIENTED_EDGE('',*,*,#407,.F.);
#195=ORIENTED_EDGE('',*,*,#414,.F.);
#196=ORIENTED_EDGE('',*,*,#415,.F.);
#197=ORIENTED_EDGE('',*,*,#416,.F.);
#198=ORIENTED_EDGE('',*,*,#417,.F.);
#199=ORIENTED_EDGE('',*,*,#418,.T.);
#200=ORIENTED_EDGE('',*,*,#419,.F.);
#201=ORIENTED_EDGE('',*,*,#415,.T.);
#202=ORIENTED_EDGE('',*,*,#406,.F.);
#203=ORIENTED_EDGE('',*,*,#380,.F.);
#204=ORIENTED_EDGE('',*,*,#420,.F.);
#205=ORIENTED_EDGE('',*,*,#421,.T.);
#206=ORIENTED_EDGE('',*,*,#422,.T.);
#207=ORIENTED_EDGE('',*,*,#423,.T.);
#208=ORIENTED_EDGE('',*,*,#381,.T.);
#209=ORIENTED_EDGE('',*,*,#422,.F.);
#210=ORIENTED_EDGE('',*,*,#382,.F.);
#211=ORIENTED_EDGE('',*,*,#423,.F.);
#212=ORIENTED_EDGE('',*,*,#421,.F.);
#213=ORIENTED_EDGE('',*,*,#424,.T.);
#214=ORIENTED_EDGE('',*,*,#378,.F.);
#215=ORIENTED_EDGE('',*,*,#376,.F.);
#216=ORIENTED_EDGE('',*,*,#420,.T.);
#217=ORIENTED_EDGE('',*,*,#379,.T.);
#218=ORIENTED_EDGE('',*,*,#424,.F.);
#219=ORIENTED_EDGE('',*,*,#418,.F.);
#220=ORIENTED_EDGE('',*,*,#425,.F.);
#221=ORIENTED_EDGE('',*,*,#426,.T.);
#222=ORIENTED_EDGE('',*,*,#427,.F.);
#223=ORIENTED_EDGE('',*,*,#416,.T.);
#224=ORIENTED_EDGE('',*,*,#414,.T.);
#225=ORIENTED_EDGE('',*,*,#419,.T.);
#226=ORIENTED_EDGE('',*,*,#426,.F.);
#227=ORIENTED_EDGE('',*,*,#425,.T.);
#228=ORIENTED_EDGE('',*,*,#417,.T.);
#229=ORIENTED_EDGE('',*,*,#427,.T.);
#230=ORIENTED_EDGE('',*,*,#428,.T.);
#231=ORIENTED_EDGE('',*,*,#372,.T.);
#232=ORIENTED_EDGE('',*,*,#429,.F.);
#233=ORIENTED_EDGE('',*,*,#430,.T.);
#234=ORIENTED_EDGE('',*,*,#431,.T.);
#235=ORIENTED_EDGE('',*,*,#373,.T.);
#236=ORIENTED_EDGE('',*,*,#428,.F.);
#237=ORIENTED_EDGE('',*,*,#374,.F.);
#238=ORIENTED_EDGE('',*,*,#431,.F.);
#239=ORIENTED_EDGE('',*,*,#430,.F.);
#240=ORIENTED_EDGE('',*,*,#432,.T.);
#241=ORIENTED_EDGE('',*,*,#370,.F.);
#242=ORIENTED_EDGE('',*,*,#368,.F.);
#243=ORIENTED_EDGE('',*,*,#429,.T.);
#244=ORIENTED_EDGE('',*,*,#371,.T.);
#245=ORIENTED_EDGE('',*,*,#432,.F.);
#246=ORIENTED_EDGE('',*,*,#412,.F.);
#247=ORIENTED_EDGE('',*,*,#433,.F.);
#248=ORIENTED_EDGE('',*,*,#434,.T.);
#249=ORIENTED_EDGE('',*,*,#435,.T.);
#250=ORIENTED_EDGE('',*,*,#410,.T.);
#251=ORIENTED_EDGE('',*,*,#408,.T.);
#252=ORIENTED_EDGE('',*,*,#413,.T.);
#253=ORIENTED_EDGE('',*,*,#434,.F.);
#254=ORIENTED_EDGE('',*,*,#433,.T.);
#255=ORIENTED_EDGE('',*,*,#411,.T.);
#256=ORIENTED_EDGE('',*,*,#435,.F.);
#257=ORIENTED_EDGE('',*,*,#365,.F.);
#258=ORIENTED_EDGE('',*,*,#436,.T.);
#259=ORIENTED_EDGE('',*,*,#400,.F.);
#260=ORIENTED_EDGE('',*,*,#388,.F.);
#261=ORIENTED_EDGE('',*,*,#436,.F.);
#262=ORIENTED_EDGE('',*,*,#364,.F.);
#263=ORIENTED_EDGE('',*,*,#338,.T.);
#264=ORIENTED_EDGE('',*,*,#437,.F.);
#265=ORIENTED_EDGE('',*,*,#362,.T.);
#266=ORIENTED_EDGE('',*,*,#399,.T.);
#267=ORIENTED_EDGE('',*,*,#437,.T.);
#268=ORIENTED_EDGE('',*,*,#323,.T.);
#269=ORIENTED_EDGE('',*,*,#340,.F.);
#270=ORIENTED_EDGE('',*,*,#363,.T.);
#271=ORIENTED_EDGE('',*,*,#392,.T.);
#272=ORIENTED_EDGE('',*,*,#354,.T.);
#273=ORIENTED_EDGE('',*,*,#438,.T.);
#274=ORIENTED_EDGE('',*,*,#334,.T.);
#275=ORIENTED_EDGE('',*,*,#330,.T.);
#276=ORIENTED_EDGE('',*,*,#438,.F.);
#277=ORIENTED_EDGE('',*,*,#353,.F.);
#278=ORIENTED_EDGE('',*,*,#386,.F.);
#279=ORIENTED_EDGE('',*,*,#336,.T.);
#280=ORIENTED_EDGE('',*,*,#360,.F.);
#281=ORIENTED_EDGE('',*,*,#439,.T.);
#282=ORIENTED_EDGE('',*,*,#359,.F.);
#283=ORIENTED_EDGE('',*,*,#389,.F.);
#284=ORIENTED_EDGE('',*,*,#439,.F.);
#285=ORIENTED_EDGE('',*,*,#440,.F.);
#286=ORIENTED_EDGE('',*,*,#356,.T.);
#287=ORIENTED_EDGE('',*,*,#391,.T.);
#288=ORIENTED_EDGE('',*,*,#357,.F.);
#289=ORIENTED_EDGE('',*,*,#440,.T.);
#290=ORIENTED_EDGE('',*,*,#390,.F.);
#291=ORIENTED_EDGE('',*,*,#395,.T.);
#292=ORIENTED_EDGE('',*,*,#403,.T.);
#293=ORIENTED_EDGE('',*,*,#441,.T.);
#294=ORIENTED_EDGE('',*,*,#384,.F.);
#295=ORIENTED_EDGE('',*,*,#441,.F.);
#296=ORIENTED_EDGE('',*,*,#402,.F.);
#297=ORIENTED_EDGE('',*,*,#331,.T.);
#298=ORIENTED_EDGE('',*,*,#328,.F.);
#299=ORIENTED_EDGE('',*,*,#333,.F.);
#300=ORIENTED_EDGE('',*,*,#405,.T.);
#301=ORIENTED_EDGE('',*,*,#442,.T.);
#302=ORIENTED_EDGE('',*,*,#404,.F.);
#303=ORIENTED_EDGE('',*,*,#393,.F.);
#304=ORIENTED_EDGE('',*,*,#442,.F.);
#305=ORIENTED_EDGE('',*,*,#385,.F.);
#306=ORIENTED_EDGE('',*,*,#343,.T.);
#307=ORIENTED_EDGE('',*,*,#348,.F.);
#308=ORIENTED_EDGE('',*,*,#443,.T.);
#309=ORIENTED_EDGE('',*,*,#347,.F.);
#310=ORIENTED_EDGE('',*,*,#444,.T.);
#311=ORIENTED_EDGE('',*,*,#396,.F.);
#312=ORIENTED_EDGE('',*,*,#443,.F.);
#313=ORIENTED_EDGE('',*,*,#444,.F.);
#314=ORIENTED_EDGE('',*,*,#346,.T.);
#315=ORIENTED_EDGE('',*,*,#397,.T.);
#316=ORIENTED_EDGE('',*,*,#350,.F.);
#317=ORIENTED_EDGE('',*,*,#445,.T.);
#318=ORIENTED_EDGE('',*,*,#398,.F.);
#319=ORIENTED_EDGE('',*,*,#341,.F.);
#320=ORIENTED_EDGE('',*,*,#325,.T.);
#321=ORIENTED_EDGE('',*,*,#445,.F.);
#322=ORIENTED_EDGE('',*,*,#349,.T.);
#323=EDGE_CURVE('',#446,#447,#528,.F.);
#324=EDGE_CURVE('',#446,#448,#529,.T.);
#325=EDGE_CURVE('',#449,#448,#530,.F.);
#326=EDGE_CURVE('',#447,#449,#531,.T.);
#327=EDGE_CURVE('',#450,#451,#532,.T.);
#328=EDGE_CURVE('',#451,#452,#533,.F.);
#329=EDGE_CURVE('',#453,#452,#534,.T.);
#330=EDGE_CURVE('',#450,#453,#535,.T.);
#331=EDGE_CURVE('',#454,#455,#536,.T.);
#332=EDGE_CURVE('',#454,#456,#57,.F.);
#333=EDGE_CURVE('',#456,#451,#537,.F.);
#334=EDGE_CURVE('',#457,#450,#538,.T.);
#335=EDGE_CURVE('',#457,#458,#58,.F.);
#336=EDGE_CURVE('',#459,#458,#539,.T.);
#337=EDGE_CURVE('',#459,#460,#540,.T.);
#338=EDGE_CURVE('',#461,#460,#541,.T.);
#339=EDGE_CURVE('',#461,#462,#59,.F.);
#340=EDGE_CURVE('',#462,#447,#542,.F.);
#341=EDGE_CURVE('',#449,#463,#543,.F.);
#342=EDGE_CURVE('',#463,#464,#60,.F.);
#343=EDGE_CURVE('',#465,#464,#544,.T.);
#344=EDGE_CURVE('',#465,#455,#545,.T.);
#345=EDGE_CURVE('',#466,#466,#61,.T.);
#346=EDGE_CURVE('',#467,#468,#12,.F.);
#347=EDGE_CURVE('',#467,#469,#13,.T.);
#348=EDGE_CURVE('',#469,#464,#14,.T.);
#349=EDGE_CURVE('',#470,#463,#15,.F.);
#350=EDGE_CURVE('',#470,#471,#16,.T.);
#351=EDGE_CURVE('',#471,#468,#62,.T.);
#352=EDGE_CURVE('',#472,#472,#63,.T.);
#353=EDGE_CURVE('',#457,#473,#17,.T.);
#354=EDGE_CURVE('',#474,#473,#18,.F.);
#355=EDGE_CURVE('',#474,#475,#64,.T.);
#356=EDGE_CURVE('',#476,#475,#19,.F.);
#357=EDGE_CURVE('',#476,#477,#20,.T.);
#358=EDGE_CURVE('',#478,#477,#546,.T.);
#359=EDGE_CURVE('',#478,#479,#21,.T.);
#360=EDGE_CURVE('',#479,#458,#22,.T.);
#361=EDGE_CURVE('',#480,#480,#65,.T.);
#362=EDGE_CURVE('',#481,#482,#23,.F.);
#363=EDGE_CURVE('',#462,#481,#24,.F.);
#364=EDGE_CURVE('',#461,#483,#25,.T.);
#365=EDGE_CURVE('',#483,#484,#26,.T.);
#366=EDGE_CURVE('',#484,#482,#66,.T.);
#367=EDGE_CURVE('',#485,#486,#67,.T.);
#368=EDGE_CURVE('',#485,#486,#547,.F.);
#369=EDGE_CURVE('',#487,#487,#68,.T.);
#370=EDGE_CURVE('',#486,#488,#27,.F.);
#371=EDGE_CURVE('',#489,#488,#28,.T.);
#372=EDGE_CURVE('',#490,#489,#29,.T.);
#373=EDGE_CURVE('',#491,#490,#30,.T.);
#374=EDGE_CURVE('',#491,#485,#31,.F.);
#375=EDGE_CURVE('',#492,#493,#69,.T.);
#376=EDGE_CURVE('',#492,#493,#548,.F.);
#377=EDGE_CURVE('',#494,#494,#70,.T.);
#378=EDGE_CURVE('',#493,#495,#32,.F.);
#379=EDGE_CURVE('',#496,#495,#33,.T.);
#380=EDGE_CURVE('',#496,#497,#34,.F.);
#381=EDGE_CURVE('',#498,#497,#35,.T.);
#382=EDGE_CURVE('',#498,#492,#36,.F.);
#383=EDGE_CURVE('',#499,#500,#549,.T.);
#384=EDGE_CURVE('',#500,#455,#550,.T.);
#385=EDGE_CURVE('',#465,#499,#551,.T.);
#386=EDGE_CURVE('',#459,#501,#552,.T.);
#387=EDGE_CURVE('',#501,#502,#553,.T.);
#388=EDGE_CURVE('',#502,#460,#554,.T.);
#389=EDGE_CURVE('',#501,#478,#555,.T.);
#390=EDGE_CURVE('',#477,#503,#556,.T.);
#391=EDGE_CURVE('',#475,#503,#557,.F.);
#392=EDGE_CURVE('',#453,#474,#558,.F.);
#393=EDGE_CURVE('',#452,#504,#559,.T.);
#394=EDGE_CURVE('',#505,#504,#71,.T.);
#395=EDGE_CURVE('',#500,#505,#560,.F.);
#396=EDGE_CURVE('',#499,#506,#561,.T.);
#397=EDGE_CURVE('',#468,#506,#562,.F.);
#398=EDGE_CURVE('',#471,#448,#563,.T.);
#399=EDGE_CURVE('',#482,#446,#564,.F.);
#400=EDGE_CURVE('',#484,#502,#565,.T.);
#401=EDGE_CURVE('',#507,#507,#72,.T.);
#402=EDGE_CURVE('',#454,#508,#37,.T.);
#403=EDGE_CURVE('',#505,#508,#38,.F.);
#404=EDGE_CURVE('',#504,#509,#39,.T.);
#405=EDGE_CURVE('',#456,#509,#40,.F.);
#406=EDGE_CURVE('',#510,#510,#73,.T.);
#407=EDGE_CURVE('',#511,#511,#74,.T.);
#408=EDGE_CURVE('',#512,#513,#566,.T.);
#409=EDGE_CURVE('',#513,#512,#75,.T.);
#410=EDGE_CURVE('',#514,#512,#41,.T.);
#411=EDGE_CURVE('',#515,#514,#42,.T.);
#412=EDGE_CURVE('',#515,#516,#43,.F.);
#413=EDGE_CURVE('',#513,#516,#44,.T.);
#414=EDGE_CURVE('',#517,#518,#567,.T.);
#415=EDGE_CURVE('',#518,#517,#76,.T.);
#416=EDGE_CURVE('',#519,#517,#45,.T.);
#417=EDGE_CURVE('',#520,#519,#46,.T.);
#418=EDGE_CURVE('',#520,#521,#47,.F.);
#419=EDGE_CURVE('',#518,#521,#48,.T.);
#420=EDGE_CURVE('',#522,#496,#568,.F.);
#421=EDGE_CURVE('',#522,#523,#569,.T.);
#422=EDGE_CURVE('',#523,#497,#570,.F.);
#423=EDGE_CURVE('',#523,#498,#571,.F.);
#424=EDGE_CURVE('',#522,#495,#572,.F.);
#425=EDGE_CURVE('',#524,#520,#573,.F.);
#426=EDGE_CURVE('',#524,#521,#574,.F.);
#427=EDGE_CURVE('',#519,#524,#575,.T.);
#428=EDGE_CURVE('',#525,#490,#576,.T.);
#429=EDGE_CURVE('',#526,#489,#577,.T.);
#430=EDGE_CURVE('',#526,#525,#578,.F.);
#431=EDGE_CURVE('',#525,#491,#579,.F.);
#432=EDGE_CURVE('',#526,#488,#580,.F.);
#433=EDGE_CURVE('',#527,#515,#581,.F.);
#434=EDGE_CURVE('',#527,#516,#582,.F.);
#435=EDGE_CURVE('',#527,#514,#583,.T.);
#436=EDGE_CURVE('',#483,#502,#584,.T.);
#437=EDGE_CURVE('',#481,#446,#585,.T.);
#438=EDGE_CURVE('',#473,#453,#586,.F.);
#439=EDGE_CURVE('',#479,#501,#587,.T.);
#440=EDGE_CURVE('',#476,#503,#588,.F.);
#441=EDGE_CURVE('',#508,#500,#589,.F.);
#442=EDGE_CURVE('',#509,#452,#590,.F.);
#443=EDGE_CURVE('',#469,#499,#591,.T.);
#444=EDGE_CURVE('',#467,#506,#592,.F.);
#445=EDGE_CURVE('',#470,#448,#593,.F.);
#446=VERTEX_POINT('',#1316);
#447=VERTEX_POINT('',#1317);
#448=VERTEX_POINT('',#1319);
#449=VERTEX_POINT('',#1321);
#450=VERTEX_POINT('',#1325);
#451=VERTEX_POINT('',#1326);
#452=VERTEX_POINT('',#1328);
#453=VERTEX_POINT('',#1330);
#454=VERTEX_POINT('',#1334);
#455=VERTEX_POINT('',#1335);
#456=VERTEX_POINT('',#1337);
#457=VERTEX_POINT('',#1340);
#458=VERTEX_POINT('',#1342);
#459=VERTEX_POINT('',#1344);
#460=VERTEX_POINT('',#1346);
#461=VERTEX_POINT('',#1348);
#462=VERTEX_POINT('',#1350);
#463=VERTEX_POINT('',#1353);
#464=VERTEX_POINT('',#1355);
#465=VERTEX_POINT('',#1357);
#466=VERTEX_POINT('',#1361);
#467=VERTEX_POINT('',#1363);
#468=VERTEX_POINT('',#1364);
#469=VERTEX_POINT('',#1366);
#470=VERTEX_POINT('',#1369);
#471=VERTEX_POINT('',#1371);
#472=VERTEX_POINT('',#1375);
#473=VERTEX_POINT('',#1377);
#474=VERTEX_POINT('',#1379);
#475=VERTEX_POINT('',#1381);
#476=VERTEX_POINT('',#1383);
#477=VERTEX_POINT('',#1385);
#478=VERTEX_POINT('',#1387);
#479=VERTEX_POINT('',#1389);
#480=VERTEX_POINT('',#1393);
#481=VERTEX_POINT('',#1395);
#482=VERTEX_POINT('',#1396);
#483=VERTEX_POINT('',#1399);
#484=VERTEX_POINT('',#1401);
#485=VERTEX_POINT('',#1405);
#486=VERTEX_POINT('',#1406);
#487=VERTEX_POINT('',#1410);
#488=VERTEX_POINT('',#1412);
#489=VERTEX_POINT('',#1414);
#490=VERTEX_POINT('',#1416);
#491=VERTEX_POINT('',#1418);
#492=VERTEX_POINT('',#1422);
#493=VERTEX_POINT('',#1423);
#494=VERTEX_POINT('',#1427);
#495=VERTEX_POINT('',#1429);
#496=VERTEX_POINT('',#1431);
#497=VERTEX_POINT('',#1433);
#498=VERTEX_POINT('',#1435);
#499=VERTEX_POINT('',#1439);
#500=VERTEX_POINT('',#1440);
#501=VERTEX_POINT('',#1445);
#502=VERTEX_POINT('',#1447);
#503=VERTEX_POINT('',#1452);
#504=VERTEX_POINT('',#1456);
#505=VERTEX_POINT('',#1458);
#506=VERTEX_POINT('',#1461);
#507=VERTEX_POINT('',#1469);
#508=VERTEX_POINT('',#1471);
#509=VERTEX_POINT('',#1474);
#510=VERTEX_POINT('',#1478);
#511=VERTEX_POINT('',#1482);
#512=VERTEX_POINT('',#1485);
#513=VERTEX_POINT('',#1486);
#514=VERTEX_POINT('',#1490);
#515=VERTEX_POINT('',#1492);
#516=VERTEX_POINT('',#1494);
#517=VERTEX_POINT('',#1498);
#518=VERTEX_POINT('',#1499);
#519=VERTEX_POINT('',#1503);
#520=VERTEX_POINT('',#1505);
#521=VERTEX_POINT('',#1507);
#522=VERTEX_POINT('',#1511);
#523=VERTEX_POINT('',#1513);
#524=VERTEX_POINT('',#1522);
#525=VERTEX_POINT('',#1529);
#526=VERTEX_POINT('',#1531);
#527=VERTEX_POINT('',#1540);
#528=LINE('',#1315,#594);
#529=LINE('',#1318,#595);
#530=LINE('',#1320,#596);
#531=LINE('',#1322,#597);
#532=LINE('',#1324,#598);
#533=LINE('',#1327,#599);
#534=LINE('',#1329,#600);
#535=LINE('',#1331,#601);
#536=LINE('',#1333,#602);
#537=LINE('',#1338,#603);
#538=LINE('',#1339,#604);
#539=LINE('',#1343,#605);
#540=LINE('',#1345,#606);
#541=LINE('',#1347,#607);
#542=LINE('',#1351,#608);
#543=LINE('',#1352,#609);
#544=LINE('',#1356,#610);
#545=LINE('',#1358,#611);
#546=LINE('',#1386,#612);
#547=LINE('',#1407,#613);
#548=LINE('',#1424,#614);
#549=LINE('',#1438,#615);
#550=LINE('',#1441,#616);
#551=LINE('',#1442,#617);
#552=LINE('',#1444,#618);
#553=LINE('',#1446,#619);
#554=LINE('',#1448,#620);
#555=LINE('',#1450,#621);
#556=LINE('',#1451,#622);
#557=LINE('',#1453,#623);
#558=LINE('',#1454,#624);
#559=LINE('',#1455,#625);
#560=LINE('',#1459,#626);
#561=LINE('',#1460,#627);
#562=LINE('',#1462,#628);
#563=LINE('',#1463,#629);
#564=LINE('',#1464,#630);
#565=LINE('',#1465,#631);
#566=LINE('',#1484,#632);
#567=LINE('',#1497,#633);
#568=LINE('',#1510,#634);
#569=LINE('',#1512,#635);
#570=LINE('',#1514,#636);
#571=LINE('',#1516,#637);
#572=LINE('',#1518,#638);
#573=LINE('',#1521,#639);
#574=LINE('',#1523,#640);
#575=LINE('',#1525,#641);
#576=LINE('',#1528,#642);
#577=LINE('',#1530,#643);
#578=LINE('',#1532,#644);
#579=LINE('',#1534,#645);
#580=LINE('',#1536,#646);
#581=LINE('',#1539,#647);
#582=LINE('',#1541,#648);
#583=LINE('',#1543,#649);
#584=LINE('',#1546,#650);
#585=LINE('',#1549,#651);
#586=LINE('',#1552,#652);
#587=LINE('',#1555,#653);
#588=LINE('',#1558,#654);
#589=LINE('',#1561,#655);
#590=LINE('',#1564,#656);
#591=LINE('',#1567,#657);
#592=LINE('',#1569,#658);
#593=LINE('',#1572,#659);
#594=VECTOR('',#1025,1.);
#595=VECTOR('',#1026,1.);
#596=VECTOR('',#1027,1.);
#597=VECTOR('',#1028,1.);
#598=VECTOR('',#1031,1.);
#599=VECTOR('',#1032,1.);
#600=VECTOR('',#1033,1.);
#601=VECTOR('',#1034,1.);
#602=VECTOR('',#1037,1.);
#603=VECTOR('',#1040,1.);
#604=VECTOR('',#1041,1.);
#605=VECTOR('',#1044,1.);
#606=VECTOR('',#1045,1.);
#607=VECTOR('',#1046,1.);
#608=VECTOR('',#1049,1.);
#609=VECTOR('',#1050,1.);
#610=VECTOR('',#1053,1.);
#611=VECTOR('',#1054,1.);
#612=VECTOR('',#1085,1.);
#613=VECTOR('',#1108,1.);
#614=VECTOR('',#1127,1.);
#615=VECTOR('',#1144,1.);
#616=VECTOR('',#1145,1.);
#617=VECTOR('',#1146,1.);
#618=VECTOR('',#1149,1.);
#619=VECTOR('',#1150,1.);
#620=VECTOR('',#1151,1.);
#621=VECTOR('',#1154,1.);
#622=VECTOR('',#1155,1.);
#623=VECTOR('',#1156,1.);
#624=VECTOR('',#1157,1.);
#625=VECTOR('',#1158,1.);
#626=VECTOR('',#1161,1.);
#627=VECTOR('',#1162,1.);
#628=VECTOR('',#1163,1.);
#629=VECTOR('',#1164,1.);
#630=VECTOR('',#1165,1.);
#631=VECTOR('',#1166,1.);
#632=VECTOR('',#1193,1.);
#633=VECTOR('',#1208,1.);
#634=VECTOR('',#1223,1.);
#635=VECTOR('',#1224,1.);
#636=VECTOR('',#1225,1.);
#637=VECTOR('',#1228,1.);
#638=VECTOR('',#1231,1.);
#639=VECTOR('',#1236,1.);
#640=VECTOR('',#1237,1.);
#641=VECTOR('',#1240,1.);
#642=VECTOR('',#1245,1.);
#643=VECTOR('',#1246,1.);
#644=VECTOR('',#1247,1.);
#645=VECTOR('',#1250,1.);
#646=VECTOR('',#1253,1.);
#647=VECTOR('',#1258,1.);
#648=VECTOR('',#1259,1.);
#649=VECTOR('',#1262,1.);
#650=VECTOR('',#1267,1.);
#651=VECTOR('',#1272,1.);
#652=VECTOR('',#1277,1.);
#653=VECTOR('',#1282,1.);
#654=VECTOR('',#1287,1.);
#655=VECTOR('',#1292,1.);
#656=VECTOR('',#1297,1.);
#657=VECTOR('',#1302,1.);
#658=VECTOR('',#1305,1.);
#659=VECTOR('',#1310,1.);
#660=EDGE_LOOP('',(#77,#78,#79,#80));
#661=EDGE_LOOP('',(#81,#82,#83,#84));
#662=EDGE_LOOP('',(#85,#86,#87,#88,#89,#90,#91,#92,#93,#94,#95,#96,#97,
#98,#99,#100));
#663=EDGE_LOOP('',(#101));
#664=EDGE_LOOP('',(#102,#103,#104,#105,#106,#107,#108));
#665=EDGE_LOOP('',(#109));
#666=EDGE_LOOP('',(#110,#111,#112,#113,#114,#115,#116,#117,#118));
#667=EDGE_LOOP('',(#119));
#668=EDGE_LOOP('',(#120,#121,#122,#123,#124,#125));
#669=EDGE_LOOP('',(#126,#127));
#670=EDGE_LOOP('',(#128));
#671=EDGE_LOOP('',(#129,#130,#131,#132,#133,#134));
#672=EDGE_LOOP('',(#135,#136));
#673=EDGE_LOOP('',(#137));
#674=EDGE_LOOP('',(#138,#139,#140,#141,#142,#143));
#675=EDGE_LOOP('',(#144,#145,#146,#147));
#676=EDGE_LOOP('',(#148,#149,#150,#151));
#677=EDGE_LOOP('',(#152,#153,#154,#155,#156,#157,#158,#159,#160,#161,#162,
#163,#164,#165,#166,#167,#168,#169,#170,#171));
#678=EDGE_LOOP('',(#172));
#679=EDGE_LOOP('',(#173));
#680=EDGE_LOOP('',(#174));
#681=EDGE_LOOP('',(#175,#176,#177,#178,#179,#180));
#682=EDGE_LOOP('',(#181));
#683=EDGE_LOOP('',(#182));
#684=EDGE_LOOP('',(#183));
#685=EDGE_LOOP('',(#184));
#686=EDGE_LOOP('',(#185));
#687=EDGE_LOOP('',(#186));
#688=EDGE_LOOP('',(#187,#188));
#689=EDGE_LOOP('',(#189,#190,#191,#192,#193));
#690=EDGE_LOOP('',(#194));
#691=EDGE_LOOP('',(#195,#196));
#692=EDGE_LOOP('',(#197,#198,#199,#200,#201));
#693=EDGE_LOOP('',(#202));
#694=EDGE_LOOP('',(#203,#204,#205,#206));
#695=EDGE_LOOP('',(#207,#208,#209));
#696=EDGE_LOOP('',(#210,#211,#212,#213,#214,#215));
#697=EDGE_LOOP('',(#216,#217,#218));
#698=EDGE_LOOP('',(#219,#220,#221));
#699=EDGE_LOOP('',(#222,#223,#224,#225,#226));
#700=EDGE_LOOP('',(#227,#228,#229));
#701=EDGE_LOOP('',(#230,#231,#232,#233));
#702=EDGE_LOOP('',(#234,#235,#236));
#703=EDGE_LOOP('',(#237,#238,#239,#240,#241,#242));
#704=EDGE_LOOP('',(#243,#244,#245));
#705=EDGE_LOOP('',(#246,#247,#248));
#706=EDGE_LOOP('',(#249,#250,#251,#252,#253));
#707=EDGE_LOOP('',(#254,#255,#256));
#708=EDGE_LOOP('',(#257,#258,#259));
#709=EDGE_LOOP('',(#260,#261,#262,#263));
#710=EDGE_LOOP('',(#264,#265,#266));
#711=EDGE_LOOP('',(#267,#268,#269,#270));
#712=EDGE_LOOP('',(#271,#272,#273));
#713=EDGE_LOOP('',(#274,#275,#276,#277));
#714=EDGE_LOOP('',(#278,#279,#280,#281));
#715=EDGE_LOOP('',(#282,#283,#284));
#716=EDGE_LOOP('',(#285,#286,#287));
#717=EDGE_LOOP('',(#288,#289,#290));
#718=EDGE_LOOP('',(#291,#292,#293));
#719=EDGE_LOOP('',(#294,#295,#296,#297));
#720=EDGE_LOOP('',(#298,#299,#300,#301));
#721=EDGE_LOOP('',(#302,#303,#304));
#722=EDGE_LOOP('',(#305,#306,#307,#308));
#723=EDGE_LOOP('',(#309,#310,#311,#312));
#724=EDGE_LOOP('',(#313,#314,#315));
#725=EDGE_LOOP('',(#316,#317,#318));
#726=EDGE_LOOP('',(#319,#320,#321,#322));
#727=FACE_BOUND('',#660,.T.);
#728=FACE_BOUND('',#661,.T.);
#729=FACE_BOUND('',#662,.T.);
#730=FACE_BOUND('',#663,.T.);
#731=FACE_BOUND('',#664,.T.);
#732=FACE_BOUND('',#665,.T.);
#733=FACE_BOUND('',#666,.T.);
#734=FACE_BOUND('',#667,.T.);
#735=FACE_BOUND('',#668,.T.);
#736=FACE_BOUND('',#669,.T.);
#737=FACE_BOUND('',#670,.T.);
#738=FACE_BOUND('',#671,.T.);
#739=FACE_BOUND('',#672,.T.);
#740=FACE_BOUND('',#673,.T.);
#741=FACE_BOUND('',#674,.T.);
#742=FACE_BOUND('',#675,.T.);
#743=FACE_BOUND('',#676,.T.);
#744=FACE_BOUND('',#677,.T.);
#745=FACE_BOUND('',#678,.T.);
#746=FACE_BOUND('',#679,.T.);
#747=FACE_BOUND('',#680,.T.);
#748=FACE_BOUND('',#681,.T.);
#749=FACE_BOUND('',#682,.T.);
#750=FACE_BOUND('',#683,.T.);
#751=FACE_BOUND('',#684,.T.);
#752=FACE_BOUND('',#685,.T.);
#753=FACE_BOUND('',#686,.T.);
#754=FACE_BOUND('',#687,.T.);
#755=FACE_BOUND('',#688,.T.);
#756=FACE_BOUND('',#689,.T.);
#757=FACE_BOUND('',#690,.T.);
#758=FACE_BOUND('',#691,.T.);
#759=FACE_BOUND('',#692,.T.);
#760=FACE_BOUND('',#693,.T.);
#761=FACE_BOUND('',#694,.T.);
#762=FACE_BOUND('',#695,.T.);
#763=FACE_BOUND('',#696,.T.);
#764=FACE_BOUND('',#697,.T.);
#765=FACE_BOUND('',#698,.T.);
#766=FACE_BOUND('',#699,.T.);
#767=FACE_BOUND('',#700,.T.);
#768=FACE_BOUND('',#701,.T.);
#769=FACE_BOUND('',#702,.T.);
#770=FACE_BOUND('',#703,.T.);
#771=FACE_BOUND('',#704,.T.);
#772=FACE_BOUND('',#705,.T.);
#773=FACE_BOUND('',#706,.T.);
#774=FACE_BOUND('',#707,.T.);
#775=FACE_BOUND('',#708,.T.);
#776=FACE_BOUND('',#709,.T.);
#777=FACE_BOUND('',#710,.T.);
#778=FACE_BOUND('',#711,.T.);
#779=FACE_BOUND('',#712,.T.);
#780=FACE_BOUND('',#713,.T.);
#781=FACE_BOUND('',#714,.T.);
#782=FACE_BOUND('',#715,.T.);
#783=FACE_BOUND('',#716,.T.);
#784=FACE_BOUND('',#717,.T.);
#785=FACE_BOUND('',#718,.T.);
#786=FACE_BOUND('',#719,.T.);
#787=FACE_BOUND('',#720,.T.);
#788=FACE_BOUND('',#721,.T.);
#789=FACE_BOUND('',#722,.T.);
#790=FACE_BOUND('',#723,.T.);
#791=FACE_BOUND('',#724,.T.);
#792=FACE_BOUND('',#725,.T.);
#793=FACE_BOUND('',#726,.T.);
#794=PLANE('',#909);
#795=PLANE('',#910);
#796=PLANE('',#911);
#797=PLANE('',#940);
#798=PLANE('',#949);
#799=PLANE('',#958);
#800=PLANE('',#959);
#801=PLANE('',#960);
#802=PLANE('',#962);
#803=PLANE('',#969);
#804=PLANE('',#971);
#805=PLANE('',#972);
#806=PLANE('',#974);
#807=PLANE('',#981);
#808=PLANE('',#988);
#809=PLANE('',#989);
#810=PLANE('',#990);
#811=PLANE('',#991);
#812=PLANE('',#992);
#813=PLANE('',#993);
#814=PLANE('',#994);
#815=PLANE('',#995);
#816=PLANE('',#996);
#817=PLANE('',#997);
#818=PLANE('',#998);
#819=PLANE('',#999);
#820=PLANE('',#1000);
#821=PLANE('',#1001);
#822=PLANE('',#1002);
#823=PLANE('',#1003);
#824=PLANE('',#1004);
#825=PLANE('',#1005);
#826=PLANE('',#1006);
#827=PLANE('',#1007);
#828=PLANE('',#1008);
#829=PLANE('',#1009);
#830=PLANE('',#1010);
#831=PLANE('',#1011);
#832=PLANE('',#1012);
#833=PLANE('',#1013);
#834=PLANE('',#1014);
#835=PLANE('',#1015);
#836=PLANE('',#1016);
#837=PLANE('',#1017);
#838=PLANE('',#1018);
#839=PLANE('',#1019);
#840=PLANE('',#1020);
#841=ADVANCED_FACE('',(#727),#794,.F.);
#842=ADVANCED_FACE('',(#728),#795,.T.);
#843=ADVANCED_FACE('',(#729),#796,.T.);
#844=ADVANCED_FACE('',(#730,#731),#49,.T.);
#845=ADVANCED_FACE('',(#732,#733),#50,.T.);
#846=ADVANCED_FACE('',(#734,#735),#51,.T.);
#847=ADVANCED_FACE('',(#736),#797,.T.);
#848=ADVANCED_FACE('',(#737,#738),#52,.F.);
#849=ADVANCED_FACE('',(#739),#798,.T.);
#850=ADVANCED_FACE('',(#740,#741),#53,.F.);
#851=ADVANCED_FACE('',(#742),#799,.F.);
#852=ADVANCED_FACE('',(#743),#800,.F.);
#853=ADVANCED_FACE('',(#744),#801,.F.);
#854=ADVANCED_FACE('',(#745,#746),#802,.T.);
#855=ADVANCED_FACE('',(#747,#748),#54,.T.);
#856=ADVANCED_FACE('',(#749,#750),#803,.T.);
#857=ADVANCED_FACE('',(#751,#752),#804,.T.);
#858=ADVANCED_FACE('',(#753,#754),#805,.T.);
#859=ADVANCED_FACE('',(#755),#806,.T.);
#860=ADVANCED_FACE('',(#756,#757),#55,.F.);
#861=ADVANCED_FACE('',(#758),#807,.T.);
#862=ADVANCED_FACE('',(#759,#760),#56,.F.);
#863=ADVANCED_FACE('',(#761),#808,.T.);
#864=ADVANCED_FACE('',(#762),#809,.T.);
#865=ADVANCED_FACE('',(#763),#810,.T.);
#866=ADVANCED_FACE('',(#764),#811,.T.);
#867=ADVANCED_FACE('',(#765),#812,.T.);
#868=ADVANCED_FACE('',(#766),#813,.T.);
#869=ADVANCED_FACE('',(#767),#814,.T.);
#870=ADVANCED_FACE('',(#768),#815,.T.);
#871=ADVANCED_FACE('',(#769),#816,.T.);
#872=ADVANCED_FACE('',(#770),#817,.T.);
#873=ADVANCED_FACE('',(#771),#818,.T.);
#874=ADVANCED_FACE('',(#772),#819,.T.);
#875=ADVANCED_FACE('',(#773),#820,.T.);
#876=ADVANCED_FACE('',(#774),#821,.T.);
#877=ADVANCED_FACE('',(#775),#822,.T.);
#878=ADVANCED_FACE('',(#776),#823,.T.);
#879=ADVANCED_FACE('',(#777),#824,.T.);
#880=ADVANCED_FACE('',(#778),#825,.T.);
#881=ADVANCED_FACE('',(#779),#826,.T.);
#882=ADVANCED_FACE('',(#780),#827,.T.);
#883=ADVANCED_FACE('',(#781),#828,.T.);
#884=ADVANCED_FACE('',(#782),#829,.T.);
#885=ADVANCED_FACE('',(#783),#830,.T.);
#886=ADVANCED_FACE('',(#784),#831,.T.);
#887=ADVANCED_FACE('',(#785),#832,.T.);
#888=ADVANCED_FACE('',(#786),#833,.T.);
#889=ADVANCED_FACE('',(#787),#834,.T.);
#890=ADVANCED_FACE('',(#788),#835,.T.);
#891=ADVANCED_FACE('',(#789),#836,.T.);
#892=ADVANCED_FACE('',(#790),#837,.T.);
#893=ADVANCED_FACE('',(#791),#838,.T.);
#894=ADVANCED_FACE('',(#792),#839,.T.);
#895=ADVANCED_FACE('',(#793),#840,.T.);
#896=CLOSED_SHELL('',(#841,#842,#843,#844,#845,#846,#847,#848,#849,#850,
#851,#852,#853,#854,#855,#856,#857,#858,#859,#860,#861,#862,#863,#864,#865,
#866,#867,#868,#869,#870,#871,#872,#873,#874,#875,#876,#877,#878,#879,#880,
#881,#882,#883,#884,#885,#886,#887,#888,#889,#890,#891,#892,#893,#894,#895));
#897=STYLED_ITEM('',(#898),#905);
#898=PRESENTATION_STYLE_ASSIGNMENT((#899));
#899=SURFACE_STYLE_USAGE(.BOTH.,#900);
#900=SURFACE_SIDE_STYLE('',(#901));
#901=SURFACE_STYLE_FILL_AREA(#902);
#902=FILL_AREA_STYLE('',(#903));
#903=FILL_AREA_STYLE_COLOUR('',#904);
#904=COLOUR_RGB('',0.615686274509804,0.811764705882353,0.929411764705882);
#905=MANIFOLD_SOLID_BREP('Part 1',#896);
#906=SHAPE_DEFINITION_REPRESENTATION(#1580,#907);
#907=SHAPE_REPRESENTATION('Part 1',(#908),#1575);
#908=AXIS2_PLACEMENT_3D('',#1313,#1021,#1022);
#909=AXIS2_PLACEMENT_3D('',#1314,#1023,#1024);
#910=AXIS2_PLACEMENT_3D('',#1323,#1029,#1030);
#911=AXIS2_PLACEMENT_3D('',#1332,#1035,#1036);
#912=AXIS2_PLACEMENT_3D('',#1336,#1038,#1039);
#913=AXIS2_PLACEMENT_3D('',#1341,#1042,#1043);
#914=AXIS2_PLACEMENT_3D('',#1349,#1047,#1048);
#915=AXIS2_PLACEMENT_3D('',#1354,#1051,#1052);
#916=AXIS2_PLACEMENT_3D('',#1359,#1055,#1056);
#917=AXIS2_PLACEMENT_3D('',#1360,#1057,#1058);
#918=AXIS2_PLACEMENT_3D('',#1362,#1059,#1060);
#919=AXIS2_PLACEMENT_3D('',#1365,#1061,#1062);
#920=AXIS2_PLACEMENT_3D('',#1367,#1063,#1064);
#921=AXIS2_PLACEMENT_3D('',#1368,#1065,#1066);
#922=AXIS2_PLACEMENT_3D('',#1370,#1067,#1068);
#923=AXIS2_PLACEMENT_3D('',#1372,#1069,#1070);
#924=AXIS2_PLACEMENT_3D('',#1373,#1071,#1072);
#925=AXIS2_PLACEMENT_3D('',#1374,#1073,#1074);
#926=AXIS2_PLACEMENT_3D('',#1376,#1075,#1076);
#927=AXIS2_PLACEMENT_3D('',#1378,#1077,#1078);
#928=AXIS2_PLACEMENT_3D('',#1380,#1079,#1080);
#929=AXIS2_PLACEMENT_3D('',#1382,#1081,#1082);
#930=AXIS2_PLACEMENT_3D('',#1384,#1083,#1084);
#931=AXIS2_PLACEMENT_3D('',#1388,#1086,#1087);
#932=AXIS2_PLACEMENT_3D('',#1390,#1088,#1089);
#933=AXIS2_PLACEMENT_3D('',#1391,#1090,#1091);
#934=AXIS2_PLACEMENT_3D('',#1392,#1092,#1093);
#935=AXIS2_PLACEMENT_3D('',#1394,#1094,#1095);
#936=AXIS2_PLACEMENT_3D('',#1397,#1096,#1097);
#937=AXIS2_PLACEMENT_3D('',#1398,#1098,#1099);
#938=AXIS2_PLACEMENT_3D('',#1400,#1100,#1101);
#939=AXIS2_PLACEMENT_3D('',#1402,#1102,#1103);
#940=AXIS2_PLACEMENT_3D('',#1403,#1104,#1105);
#941=AXIS2_PLACEMENT_3D('',#1404,#1106,#1107);
#942=AXIS2_PLACEMENT_3D('',#1408,#1109,#1110);
#943=AXIS2_PLACEMENT_3D('',#1409,#1111,#1112);
#944=AXIS2_PLACEMENT_3D('',#1411,#1113,#1114);
#945=AXIS2_PLACEMENT_3D('',#1413,#1115,#1116);
#946=AXIS2_PLACEMENT_3D('',#1415,#1117,#1118);
#947=AXIS2_PLACEMENT_3D('',#1417,#1119,#1120);
#948=AXIS2_PLACEMENT_3D('',#1419,#1121,#1122);
#949=AXIS2_PLACEMENT_3D('',#1420,#1123,#1124);
#950=AXIS2_PLACEMENT_3D('',#1421,#1125,#1126);
#951=AXIS2_PLACEMENT_3D('',#1425,#1128,#1129);
#952=AXIS2_PLACEMENT_3D('',#1426,#1130,#1131);
#953=AXIS2_PLACEMENT_3D('',#1428,#1132,#1133);
#954=AXIS2_PLACEMENT_3D('',#1430,#1134,#1135);
#955=AXIS2_PLACEMENT_3D('',#1432,#1136,#1137);
#956=AXIS2_PLACEMENT_3D('',#1434,#1138,#1139);
#957=AXIS2_PLACEMENT_3D('',#1436,#1140,#1141);
#958=AXIS2_PLACEMENT_3D('',#1437,#1142,#1143);
#959=AXIS2_PLACEMENT_3D('',#1443,#1147,#1148);
#960=AXIS2_PLACEMENT_3D('',#1449,#1152,#1153);
#961=AXIS2_PLACEMENT_3D('',#1457,#1159,#1160);
#962=AXIS2_PLACEMENT_3D('',#1466,#1167,#1168);
#963=AXIS2_PLACEMENT_3D('',#1467,#1169,#1170);
#964=AXIS2_PLACEMENT_3D('',#1468,#1171,#1172);
#965=AXIS2_PLACEMENT_3D('',#1470,#1173,#1174);
#966=AXIS2_PLACEMENT_3D('',#1472,#1175,#1176);
#967=AXIS2_PLACEMENT_3D('',#1473,#1177,#1178);
#968=AXIS2_PLACEMENT_3D('',#1475,#1179,#1180);
#969=AXIS2_PLACEMENT_3D('',#1476,#1181,#1182);
#970=AXIS2_PLACEMENT_3D('',#1477,#1183,#1184);
#971=AXIS2_PLACEMENT_3D('',#1479,#1185,#1186);
#972=AXIS2_PLACEMENT_3D('',#1480,#1187,#1188);
#973=AXIS2_PLACEMENT_3D('',#1481,#1189,#1190);
#974=AXIS2_PLACEMENT_3D('',#1483,#1191,#1192);
#975=AXIS2_PLACEMENT_3D('',#1487,#1194,#1195);
#976=AXIS2_PLACEMENT_3D('',#1488,#1196,#1197);
#977=AXIS2_PLACEMENT_3D('',#1489,#1198,#1199);
#978=AXIS2_PLACEMENT_3D('',#1491,#1200,#1201);
#979=AXIS2_PLACEMENT_3D('',#1493,#1202,#1203);
#980=AXIS2_PLACEMENT_3D('',#1495,#1204,#1205);
#981=AXIS2_PLACEMENT_3D('',#1496,#1206,#1207);
#982=AXIS2_PLACEMENT_3D('',#1500,#1209,#1210);
#983=AXIS2_PLACEMENT_3D('',#1501,#1211,#1212);
#984=AXIS2_PLACEMENT_3D('',#1502,#1213,#1214);
#985=AXIS2_PLACEMENT_3D('',#1504,#1215,#1216);
#986=AXIS2_PLACEMENT_3D('',#1506,#1217,#1218);
#987=AXIS2_PLACEMENT_3D('',#1508,#1219,#1220);
#988=AXIS2_PLACEMENT_3D('',#1509,#1221,#1222);
#989=AXIS2_PLACEMENT_3D('',#1515,#1226,#1227);
#990=AXIS2_PLACEMENT_3D('',#1517,#1229,#1230);
#991=AXIS2_PLACEMENT_3D('',#1519,#1232,#1233);
#992=AXIS2_PLACEMENT_3D('',#1520,#1234,#1235);
#993=AXIS2_PLACEMENT_3D('',#1524,#1238,#1239);
#994=AXIS2_PLACEMENT_3D('',#1526,#1241,#1242);
#995=AXIS2_PLACEMENT_3D('',#1527,#1243,#1244);
#996=AXIS2_PLACEMENT_3D('',#1533,#1248,#1249);
#997=AXIS2_PLACEMENT_3D('',#1535,#1251,#1252);
#998=AXIS2_PLACEMENT_3D('',#1537,#1254,#1255);
#999=AXIS2_PLACEMENT_3D('',#1538,#1256,#1257);
#1000=AXIS2_PLACEMENT_3D('',#1542,#1260,#1261);
#1001=AXIS2_PLACEMENT_3D('',#1544,#1263,#1264);
#1002=AXIS2_PLACEMENT_3D('',#1545,#1265,#1266);
#1003=AXIS2_PLACEMENT_3D('',#1547,#1268,#1269);
#1004=AXIS2_PLACEMENT_3D('',#1548,#1270,#1271);
#1005=AXIS2_PLACEMENT_3D('',#1550,#1273,#1274);
#1006=AXIS2_PLACEMENT_3D('',#1551,#1275,#1276);
#1007=AXIS2_PLACEMENT_3D('',#1553,#1278,#1279);
#1008=AXIS2_PLACEMENT_3D('',#1554,#1280,#1281);
#1009=AXIS2_PLACEMENT_3D('',#1556,#1283,#1284);
#1010=AXIS2_PLACEMENT_3D('',#1557,#1285,#1286);
#1011=AXIS2_PLACEMENT_3D('',#1559,#1288,#1289);
#1012=AXIS2_PLACEMENT_3D('',#1560,#1290,#1291);
#1013=AXIS2_PLACEMENT_3D('',#1562,#1293,#1294);
#1014=AXIS2_PLACEMENT_3D('',#1563,#1295,#1296);
#1015=AXIS2_PLACEMENT_3D('',#1565,#1298,#1299);
#1016=AXIS2_PLACEMENT_3D('',#1566,#1300,#1301);
#1017=AXIS2_PLACEMENT_3D('',#1568,#1303,#1304);
#1018=AXIS2_PLACEMENT_3D('',#1570,#1306,#1307);
#1019=AXIS2_PLACEMENT_3D('',#1571,#1308,#1309);
#1020=AXIS2_PLACEMENT_3D('',#1573,#1311,#1312);
#1021=DIRECTION('',(0.,0.,1.));
#1022=DIRECTION('',(1.,0.,0.));
#1023=DIRECTION('',(0.991498646261969,0.130117002965343,0.));
#1024=DIRECTION('',(-0.130117002965343,0.991498646261969,0.));
#1025=DIRECTION('',(0.108477036687896,-0.826600925132028,-0.552235133871695));
#1026=DIRECTION('',(0.130117002965343,-0.991498646261969,0.));
#1027=DIRECTION('',(0.116653863263266,-0.888908788788838,0.442981987669609));
#1028=DIRECTION('',(0.130117002965343,-0.991498646261969,0.));
#1029=DIRECTION('',(1.,9.63735264431559E-17,0.));
#1030=DIRECTION('',(-9.63735264431559E-17,1.,0.));
#1031=DIRECTION('',(9.63735264431559E-17,-1.,0.));
#1032=DIRECTION('',(8.29654019956546E-17,-0.860873364892279,0.508819270094054));
#1033=DIRECTION('',(9.63735264431559E-17,-1.,0.));
#1034=DIRECTION('',(7.93344816468441E-17,-0.823197869527354,-0.567754583958268));
#1035=DIRECTION('',(0.,0.,1.));
#1036=DIRECTION('',(1.,0.,0.));
#1037=DIRECTION('',(-0.98339118441806,-0.181498700846167,0.));
#1038=DIRECTION('',(0.,0.,1.));
#1039=DIRECTION('',(1.,0.,0.));
#1040=DIRECTION('',(-0.104218075829534,-0.99455446943362,0.));
#1041=DIRECTION('',(0.121611650465314,-0.99257775840037,0.));
#1042=DIRECTION('',(0.,0.,1.));
#1043=DIRECTION('',(1.,0.,0.));
#1044=DIRECTION('',(0.996886109286725,-0.0788548356867029,0.));
#1045=DIRECTION('',(-0.997796466690483,-0.0663491602055962,0.));
#1046=DIRECTION('',(0.978012043840899,0.208548416685784,0.));
#1047=DIRECTION('',(0.,0.,1.));
#1048=DIRECTION('',(1.,0.,0.));
#1049=DIRECTION('',(-0.0134203983713927,0.999909942398591,0.));
#1050=DIRECTION('',(-0.216005942738255,0.976392048667828,0.));
#1051=DIRECTION('',(0.,0.,1.));
#1052=DIRECTION('',(1.,0.,0.));
#1053=DIRECTION('',(-0.988959743964782,0.148184428389468,0.));
#1054=DIRECTION('',(1.,0.,0.));
#1055=DIRECTION('',(0.,0.,-1.));
#1056=DIRECTION('',(-1.,0.,0.));
#1057=DIRECTION('',(0.,0.,1.));
#1058=DIRECTION('',(1.,0.,0.));
#1059=DIRECTION('',(-0.389591748282082,-0.904469225603318,0.17364817766693));
#1060=DIRECTION('',(-0.0686955366835119,-0.159482327694356,-0.984807753012208));
#1061=DIRECTION('',(0.161241047932381,-0.971518211283052,0.17364817766693));
#1062=DIRECTION('',(0.0284311471481856,-0.171304872898829,-0.984807753012208));
#1063=DIRECTION('',(0.145933173953631,0.973935223273485,0.17364817766693));
#1064=DIRECTION('',(0.0257319559484469,0.171731057325439,-0.984807753012208));
#1065=DIRECTION('',(0.96155845950755,0.212724327105345,0.17364817766693));
#1066=DIRECTION('',(0.169548699939649,0.0375090383217252,-0.984807753012208));
#1067=DIRECTION('',(-0.984719063588123,-0.0132165123646599,0.17364817766693));
#1068=DIRECTION('',(-0.17363253932856,-0.00233042772075658,-0.984807753012208));
#1069=DIRECTION('',(0.,0.,1.));
#1070=DIRECTION('',(1.,0.,0.));
#1071=DIRECTION('',(0.,0.,-1.));
#1072=DIRECTION('',(-1.,0.,0.));
#1073=DIRECTION('',(0.,0.,1.));
#1074=DIRECTION('',(1.,0.,0.));
#1075=DIRECTION('',(-0.977498271940162,-0.119764096234852,0.17364817766693));
#1076=DIRECTION('',(-0.172359318938951,-0.0211176414863696,-0.984807753012208));
#1077=DIRECTION('',(0.974110853859781,-0.144756190836604,0.17364817766693));
#1078=DIRECTION('',(0.17176202573644,-0.0255244220690768,-0.984807753012208));
#1079=DIRECTION('',(0.,0.,1.));
#1080=DIRECTION('',(1.,0.,0.));
#1081=DIRECTION('',(0.7554215879901,0.631810521273166,0.17364817766693));
#1082=DIRECTION('',(0.133201207772288,0.111405241595939,-0.984807753012208));
#1083=DIRECTION('',(-0.262540815706855,0.949167335342369,0.17364817766693));
#1084=DIRECTION('',(-0.0462930293463273,0.167363810428019,-0.984807753012208));
#1085=DIRECTION('',(0.963809771439323,0.266590930974932,0.));
#1086=DIRECTION('',(-0.262540815706855,0.949167335342369,0.17364817766693));
#1087=DIRECTION('',(-0.0462930293463273,0.167363810428019,-0.984807753012208));
#1088=DIRECTION('',(-0.0776568535467687,-0.981741169295742,0.17364817766693));
#1089=DIRECTION('',(-0.0136929985172212,-0.173107456219116,-0.984807753012208));
#1090=DIRECTION('',(0.,0.,-1.));
#1091=DIRECTION('',(-1.,0.,0.));
#1092=DIRECTION('',(0.,0.,1.));
#1093=DIRECTION('',(1.,0.,0.));
#1094=DIRECTION('',(-0.948791174018623,-0.263896984630969,0.17364817766693));
#1095=DIRECTION('',(-0.167297483037543,-0.046532158518047,-0.984807753012208));
#1096=DIRECTION('',(0.984719063588123,0.0132165123646599,0.17364817766693));
#1097=DIRECTION('',(0.17363253932856,0.00233042772075658,-0.984807753012208));
#1098=DIRECTION('',(0.205380097630581,-0.963153843313833,0.17364817766693));
#1099=DIRECTION('',(0.0362140525128102,-0.169830009149282,-0.984807753012208));
#1100=DIRECTION('',(0.130751048707906,0.976089377902832,0.17364817766693));
#1101=DIRECTION('',(0.0230549376431305,0.17211089290721,-0.984807753012208));
#1102=DIRECTION('',(0.,0.,1.));
#1103=DIRECTION('',(1.,0.,0.));
#1104=DIRECTION('',(0.,0.,1.));
#1105=DIRECTION('',(1.,0.,0.));
#1106=DIRECTION('',(0.,0.,-1.));
#1107=DIRECTION('',(-1.,0.,0.));
#1108=DIRECTION('',(-0.641557216970177,0.767075183638137,0.));
#1109=DIRECTION('',(0.,0.,-1.));
#1110=DIRECTION('',(-1.,0.,0.));
#1111=DIRECTION('',(0.,0.,-1.));
#1112=DIRECTION('',(-1.,0.,0.));
#1113=DIRECTION('',(0.7554215879901,0.631810521273166,0.17364817766693));
#1114=DIRECTION('',(0.133201207772288,0.111405241595939,-0.984807753012208));
#1115=DIRECTION('',(-0.977498271940162,-0.119764096234852,0.17364817766693));
#1116=DIRECTION('',(-0.172359318938951,-0.0211176414863696,-0.984807753012208));
#1117=DIRECTION('',(-0.0776568535467687,-0.981741169295742,0.17364817766693));
#1118=DIRECTION('',(-0.0136929985172212,-0.173107456219116,-0.984807753012208));
#1119=DIRECTION('',(-0.262540815706855,0.949167335342369,0.17364817766693));
#1120=DIRECTION('',(-0.0462930293463273,0.167363810428019,-0.984807753012208));
#1121=DIRECTION('',(0.7554215879901,0.631810521273166,0.17364817766693));
#1122=DIRECTION('',(0.133201207772288,0.111405241595939,-0.984807753012208));
#1123=DIRECTION('',(0.,0.,1.));
#1124=DIRECTION('',(1.,0.,0.));
#1125=DIRECTION('',(0.,0.,-1.));
#1126=DIRECTION('',(-1.,0.,0.));
#1127=DIRECTION('',(0.9184221213093,-0.395601828976719,0.));
#1128=DIRECTION('',(0.,0.,-1.));
#1129=DIRECTION('',(-1.,0.,0.));
#1130=DIRECTION('',(0.,0.,-1.));
#1131=DIRECTION('',(-1.,0.,0.));
#1132=DIRECTION('',(-0.389591748282082,-0.904469225603318,0.17364817766693));
#1133=DIRECTION('',(-0.0686955366835119,-0.159482327694356,-0.984807753012208));
#1134=DIRECTION('',(-0.984719063588123,-0.0132165123646599,0.17364817766693));
#1135=DIRECTION('',(-0.17363253932856,-0.00233042772075658,-0.984807753012208));
#1136=DIRECTION('',(0.96155845950755,0.212724327105345,0.17364817766693));
#1137=DIRECTION('',(0.169548699939649,0.0375090383217252,-0.984807753012208));
#1138=DIRECTION('',(0.145933173953631,0.973935223273485,0.17364817766693));
#1139=DIRECTION('',(0.0257319559484469,0.171731057325439,-0.984807753012208));
#1140=DIRECTION('',(-0.389591748282082,-0.904469225603318,0.17364817766693));
#1141=DIRECTION('',(-0.0686955366835119,-0.159482327694356,-0.984807753012208));
#1142=DIRECTION('',(0.,1.,0.));
#1143=DIRECTION('',(0.,0.,1.));
#1144=DIRECTION('',(1.,0.,0.));
#1145=DIRECTION('',(0.696814060805439,0.,0.717251813984345));
#1146=DIRECTION('',(0.765555669493892,0.,-0.643369658054963));
#1147=DIRECTION('',(0.0663491602055962,-0.997796466690483,0.));
#1148=DIRECTION('',(0.997796466690483,0.0663491602055962,0.));
#1149=DIRECTION('',(-0.771058672947997,-0.0512720751447707,-0.634696539443869));
#1150=DIRECTION('',(-0.997796466690483,-0.0663491602055962,0.));
#1151=DIRECTION('',(-0.774547989323424,-0.0515040996296529,0.630414736468288));
#1152=DIRECTION('',(0.,0.,1.));
#1153=DIRECTION('',(1.,0.,0.));
#1154=DIRECTION('',(0.963809771439323,0.266590930974932,0.));
#1155=DIRECTION('',(0.963809771439323,0.266590930974932,0.));
#1156=DIRECTION('',(0.641557216970177,-0.767075183638137,0.));
#1157=DIRECTION('',(-0.146989288410699,-0.989138083935967,0.));
#1158=DIRECTION('',(0.152885514325975,-0.98824390689206,0.));
#1159=DIRECTION('',(0.,0.,1.));
#1160=DIRECTION('',(1.,0.,0.));
#1161=DIRECTION('',(-0.979205832643621,0.202869261635942,0.));
#1162=DIRECTION('',(-0.986505445668449,-0.163728450998885,0.));
#1163=DIRECTION('',(-0.9184221213093,0.395601828976719,0.));
#1164=DIRECTION('',(-0.0134203983713927,0.999909942398591,0.));
#1165=DIRECTION('',(-0.26796802099069,0.963427807220828,0.));
#1166=DIRECTION('',(0.991147129901537,-0.132768094389977,0.));
#1167=DIRECTION('',(0.,0.,1.));
#1168=DIRECTION('',(1.,0.,0.));
#1169=DIRECTION('',(0.,0.,-1.));
#1170=DIRECTION('',(-1.,0.,0.));
#1171=DIRECTION('',(0.,0.,1.));
#1172=DIRECTION('',(1.,0.,0.));
#1173=DIRECTION('',(-0.178741327754948,0.968451262658763,0.17364817766693));
#1174=DIRECTION('',(-0.0315169186508522,0.17076408710792,-0.984807753012208));
#1175=DIRECTION('',(-0.199787221706938,-0.964329495782213,0.17364817766693));
#1176=DIRECTION('',(-0.035227877587717,-0.170037308399394,-0.984807753012208));
#1177=DIRECTION('',(0.973230261374375,0.150562839831479,0.17364817766693));
#1178=DIRECTION('',(0.171606753522254,0.0265482909543769,-0.984807753012208));
#1179=DIRECTION('',(-0.979444952291172,0.102634769080939,0.17364817766693));
#1180=DIRECTION('',(-0.172702571207649,0.0180972789477525,-0.984807753012208));
#1181=DIRECTION('',(0.,0.,1.));
#1182=DIRECTION('',(1.,0.,0.));
#1183=DIRECTION('',(0.,0.,-1.));
#1184=DIRECTION('',(-1.,0.,0.));
#1185=DIRECTION('',(0.,0.,1.));
#1186=DIRECTION('',(1.,0.,0.));
#1187=DIRECTION('',(0.,0.,1.));
#1188=DIRECTION('',(1.,0.,0.));
#1189=DIRECTION('',(0.,0.,-1.));
#1190=DIRECTION('',(-1.,0.,0.));
#1191=DIRECTION('',(0.,0.,1.));
#1192=DIRECTION('',(1.,0.,0.));
#1193=DIRECTION('',(-0.719699822306321,-0.694285363357352,0.));
#1194=DIRECTION('',(0.,0.,-1.));
#1195=DIRECTION('',(-1.,0.,0.));
#1196=DIRECTION('',(0.,0.,-1.));
#1197=DIRECTION('',(-1.,0.,0.));
#1198=DIRECTION('',(-0.683737608637218,0.708765964848773,0.17364817766693));
#1199=DIRECTION('',(-0.120561388127827,0.124974562610706,-0.984807753012208));
#1200=DIRECTION('',(0.205380097630581,-0.963153843313833,0.17364817766693));
#1201=DIRECTION('',(0.0362140525128102,-0.169830009149282,-0.984807753012208));
#1202=DIRECTION('',(0.984719063588123,0.0132165123646599,0.17364817766693));
#1203=DIRECTION('',(0.17363253932856,0.00233042772075658,-0.984807753012208));
#1204=DIRECTION('',(-0.683737608637218,0.708765964848773,0.17364817766693));
#1205=DIRECTION('',(-0.120561388127827,0.124974562610706,-0.984807753012208));
#1206=DIRECTION('',(0.,0.,1.));
#1207=DIRECTION('',(1.,0.,0.));
#1208=DIRECTION('',(0.724837197014854,0.688920196992112,0.));
#1209=DIRECTION('',(0.,0.,-1.));
#1210=DIRECTION('',(-1.,0.,0.));
#1211=DIRECTION('',(0.,0.,-1.));
#1212=DIRECTION('',(-1.,0.,0.));
#1213=DIRECTION('',(0.678453951204529,-0.713825291291865,0.17364817766693));
#1214=DIRECTION('',(0.119629736765623,-0.125866658366835,-0.984807753012208));
#1215=DIRECTION('',(-0.178741327754948,0.968451262658763,0.17364817766693));
#1216=DIRECTION('',(-0.0315169186508522,0.17076408710792,-0.984807753012208));
#1217=DIRECTION('',(-0.979444952291172,0.102634769080939,0.17364817766693));
#1218=DIRECTION('',(-0.172702571207649,0.0180972789477525,-0.984807753012208));
#1219=DIRECTION('',(0.678453951204529,-0.713825291291865,0.17364817766693));
#1220=DIRECTION('',(0.119629736765623,-0.125866658366835,-0.984807753012208));
#1221=DIRECTION('',(0.96155845950755,0.212724327105345,0.17364817766693));
#1222=DIRECTION('',(-0.169548699939649,-0.0375090383217252,0.984807753012208));
#1223=DIRECTION('',(0.0998232534812604,-0.85988772542669,0.500628023311649));
#1224=DIRECTION('',(0.229946452469206,-0.278100599740283,-0.932622477437104));
#1225=DIRECTION('',(-0.142754467839059,-0.152959126283462,0.977867407984634));
#1226=DIRECTION('',(0.145933173953631,0.973935223273485,0.17364817766693));
#1227=DIRECTION('',(-0.025731955948447,-0.171731057325439,0.984807753012208));
#1228=DIRECTION('',(-0.776906502087794,0.22149265796499,-0.589370248215256));
#1229=DIRECTION('',(-0.389591748282082,-0.904469225603318,0.17364817766693));
#1230=DIRECTION('',(0.0686955366835119,0.159482327694356,0.984807753012208));
#1231=DIRECTION('',(0.171040126314289,0.114210761629145,0.978622080845554));
#1232=DIRECTION('',(-0.984719063588123,-0.0132165123646599,0.17364817766693));
#1233=DIRECTION('',(0.17363253932856,0.00233042772075658,0.984807753012208));
#1234=DIRECTION('',(-0.979444952291172,0.102634769080939,0.17364817766693));
#1235=DIRECTION('',(0.172702571207649,-0.0180972789477525,0.984807753012208));
#1236=DIRECTION('',(0.157849293773829,-0.145978394489695,0.976613489973037));
#1237=DIRECTION('',(-0.200647815712024,-0.407434251598148,-0.890919628627998));
#1238=DIRECTION('',(0.678453951204529,-0.713825291291865,0.17364817766693));
#1239=DIRECTION('',(-0.119629736765623,0.125866658366835,0.984807753012208));
#1240=DIRECTION('',(0.469085817242274,0.239020241364385,-0.850192813590105));
#1241=DIRECTION('',(-0.178741327754948,0.968451262658763,0.17364817766693));
#1242=DIRECTION('',(0.0315169186508523,-0.17076408710792,0.984807753012208));
#1243=DIRECTION('',(-0.0776568535467687,-0.981741169295742,0.17364817766693));
#1244=DIRECTION('',(0.0136929985172212,0.173107456219116,0.984807753012208));
#1245=DIRECTION('',(-0.709526694547997,-0.0679369872944698,-0.701396061780464));
#1246=DIRECTION('',(-0.153570424467089,-0.160316362110457,-0.975046044435167));
#1247=DIRECTION('',(0.368200408749688,-0.190102259808162,-0.910104164264944));
#1248=DIRECTION('',(-0.262540815706855,0.949167335342369,0.17364817766693));
#1249=DIRECTION('',(0.0462930293463273,-0.167363810428019,0.984807753012208));
#1250=DIRECTION('',(-0.06108877688986,-0.195950032912003,0.978709224407273));
#1251=DIRECTION('',(0.7554215879901,0.631810521273166,0.17364817766693));
#1252=DIRECTION('',(-0.133201207772288,-0.111405241595939,0.984807753012208));
#1253=DIRECTION('',(-0.210214710601073,0.484696047955886,-0.849046239343213));
#1254=DIRECTION('',(-0.977498271940162,-0.119764096234852,0.17364817766693));
#1255=DIRECTION('',(0.172359318938951,0.0211176414863696,0.984807753012208));
#1256=DIRECTION('',(0.984719063588123,0.0132165123646599,0.17364817766693));
#1257=DIRECTION('',(-0.17363253932856,-0.00233042772075658,0.984807753012208));
#1258=DIRECTION('',(-0.17378971720158,0.138718978623448,0.974963680946456));
#1259=DIRECTION('',(0.156143916665271,0.374551886508055,-0.913963873247562));
#1260=DIRECTION('',(-0.683737608637218,0.708765964848773,0.17364817766693));
#1261=DIRECTION('',(0.120561388127827,-0.124974562610706,0.984807753012208));
#1262=DIRECTION('',(0.476473758126243,0.25338610910267,0.84188374347701));
#1263=DIRECTION('',(0.205380097630581,-0.963153843313833,0.17364817766693));
#1264=DIRECTION('',(-0.0362140525128102,0.169830009149282,0.984807753012208));
#1265=DIRECTION('',(0.130751048707906,0.976089377902832,0.17364817766693));
#1266=DIRECTION('',(-0.0230549376431305,-0.17211089290721,0.984807753012208));
#1267=DIRECTION('',(0.717774426970629,0.027622539679282,-0.695727581233238));
#1268=DIRECTION('',(0.205380097630581,-0.963153843313833,0.17364817766693));
#1269=DIRECTION('',(-0.0362140525128102,0.169830009149282,0.984807753012208));
#1270=DIRECTION('',(-0.948791174018623,-0.263896984630969,0.17364817766693));
#1271=DIRECTION('',(0.167297483037543,0.046532158518047,0.984807753012208));
#1272=DIRECTION('',(0.114632655055969,-0.799829003342462,-0.589179870503926));
#1273=DIRECTION('',(0.984719063588123,0.0132165123646599,0.17364817766693));
#1274=DIRECTION('',(-0.17363253932856,-0.00233042772075658,0.984807753012208));
#1275=DIRECTION('',(0.974110853859781,-0.144756190836604,0.17364817766693));
#1276=DIRECTION('',(-0.17176202573644,0.0255244220690768,0.984807753012208));
#1277=DIRECTION('',(0.0101862928741036,0.795438015418606,0.605949340344878));
#1278=DIRECTION('',(-0.977498271940162,-0.119764096234852,0.17364817766693));
#1279=DIRECTION('',(0.172359318938951,0.0211176414863696,0.984807753012208));
#1280=DIRECTION('',(-0.0776568535467687,-0.981741169295742,0.17364817766693));
#1281=DIRECTION('',(0.0136929985172212,0.173107456219116,0.984807753012208));
#1282=DIRECTION('',(-0.709526694547997,-0.0679369872944698,-0.701396061780464));
#1283=DIRECTION('',(-0.262540815706855,0.949167335342369,0.17364817766693));
#1284=DIRECTION('',(0.0462930293463273,-0.167363810428019,0.984807753012208));
#1285=DIRECTION('',(0.7554215879901,0.631810521273166,0.17364817766693));
#1286=DIRECTION('',(-0.133201207772288,-0.111405241595939,0.984807753012208));
#1287=DIRECTION('',(-0.06108877688986,-0.195950032912003,0.978709224407273));
#1288=DIRECTION('',(-0.262540815706855,0.949167335342369,0.17364817766693));
#1289=DIRECTION('',(0.0462930293463273,-0.167363810428019,0.984807753012208));
#1290=DIRECTION('',(-0.199787221706938,-0.964329495782213,0.17364817766693));
#1291=DIRECTION('',(0.035227877587717,0.170037308399394,0.984807753012208));
#1292=DIRECTION('',(0.675992598739029,-0.00736082894206112,0.736871647335776));
#1293=DIRECTION('',(-0.178741327754948,0.968451262658763,0.17364817766693));
#1294=DIRECTION('',(0.0315169186508523,-0.17076408710792,0.984807753012208));
#1295=DIRECTION('',(-0.979444952291172,0.102634769080939,0.17364817766693));
#1296=DIRECTION('',(0.172702571207649,-0.0180972789477525,0.984807753012208));
#1297=DIRECTION('',(0.0198254279153274,-0.807723346346815,0.589228264914606));
#1298=DIRECTION('',(0.973230261374375,0.150562839831479,0.17364817766693));
#1299=DIRECTION('',(-0.171606753522254,-0.0265482909543769,0.984807753012208));
#1300=DIRECTION('',(0.145933173953631,0.973935223273485,0.17364817766693));
#1301=DIRECTION('',(-0.025731955948447,-0.171731057325439,0.984807753012208));
#1302=DIRECTION('',(0.749016153107006,0.00589366194849263,-0.662525521873399));
#1303=DIRECTION('',(0.161241047932381,-0.971518211283052,0.17364817766693));
#1304=DIRECTION('',(-0.0284311471481856,0.171304872898829,0.984807753012208));
#1305=DIRECTION('',(0.0218395100721724,0.179419841762716,0.983530150113177));
#1306=DIRECTION('',(-0.389591748282082,-0.904469225603318,0.17364817766693));
#1307=DIRECTION('',(0.0686955366835119,0.159482327694356,0.984807753012208));
#1308=DIRECTION('',(-0.984719063588123,-0.0132165123646599,0.17364817766693));
#1309=DIRECTION('',(0.17363253932856,0.00233042772075658,0.984807753012208));
#1310=DIRECTION('',(0.0998232534812604,-0.85988772542669,0.500628023311649));
#1311=DIRECTION('',(0.96155845950755,0.212724327105345,0.17364817766693));
#1312=DIRECTION('',(-0.169548699939649,-0.0375090383217252,0.984807753012208));
#1313=CARTESIAN_POINT('',(0.,0.,0.));
#1314=CARTESIAN_POINT('',(-0.0329481142715666,-0.000790904082684629,0.0025));
#1315=CARTESIAN_POINT('',(-0.0336119464856177,0.00426753352790239,-0.00520200861769203));
#1316=CARTESIAN_POINT('',(-0.0346337910678627,0.0120540448745856,0.));
#1317=CARTESIAN_POINT('',(-0.0351248728101966,0.0157961144860242,0.0025));
#1318=CARTESIAN_POINT('',(-0.0329481142715666,-0.000790904082684629,0.));
#1319=CARTESIAN_POINT('',(-0.031755985787112,-0.00987498803458664,0.));
#1320=CARTESIAN_POINT('',(-0.0325849903727786,-0.00355792796018337,-0.00314806632950529));
#1321=CARTESIAN_POINT('',(-0.0310976415061349,-0.0148916072963827,0.0025));
#1322=CARTESIAN_POINT('',(-0.0329481142715666,-0.000790904082684629,0.0025));
#1323=CARTESIAN_POINT('',(0.0314758638292551,0.00149814194440843,0.0025));
#1324=CARTESIAN_POINT('',(0.0314758638292551,0.00149814194440843,0.0025));
#1325=CARTESIAN_POINT('',(0.0314758638292551,0.0207132876966649,0.0025));
#1326=CARTESIAN_POINT('',(0.0314758638292551,-0.0191090919561698,0.0025));
#1327=CARTESIAN_POINT('',(0.0314758638292551,-0.00383701011326087,-0.00652656517558533));
#1328=CARTESIAN_POINT('',(0.0314758638292551,-0.0148793319240212,0.));
#1329=CARTESIAN_POINT('',(0.0314758638292551,0.00149814194440843,0.));
#1330=CARTESIAN_POINT('',(0.0314758638292551,0.0170884914696217,0.));
#1331=CARTESIAN_POINT('',(0.0314758638292551,0.00769205324400068,-0.00648066652376079));
#1332=CARTESIAN_POINT('',(-0.0029481142715666,0.00149814194440841,0.0025));
#1333=CARTESIAN_POINT('',(0.00420417454439199,-0.0372541892691739,0.0025));
#1334=CARTESIAN_POINT('',(0.0291097742735269,-0.0326575098741805,0.0025));
#1335=CARTESIAN_POINT('',(0.0191167785433019,-0.0345018580555916,0.0025));
#1336=CARTESIAN_POINT('',(0.0314758638292551,-0.0345018580555916,0.0025));
#1337=CARTESIAN_POINT('',(0.0301445941604345,-0.0318134159288427,0.0025));
#1338=CARTESIAN_POINT('',(0.0332379221731004,-0.00229374598738906,0.0025));
#1339=CARTESIAN_POINT('',(0.0332861954719483,0.00593760693754081,0.0025));
#1340=CARTESIAN_POINT('',(0.0297171427003511,0.0350677304585183,0.0025));
#1341=CARTESIAN_POINT('',(0.031475863829255,0.0374981419444084,0.0025));
#1342=CARTESIAN_POINT('',(0.0288810380571948,0.035992526052937,0.0025));
#1343=CARTESIAN_POINT('',(-3.86188376704185E-5,0.0382801041135763,0.0025));
#1344=CARTESIAN_POINT('',(0.0197251303435531,0.036716768864223,0.0025));
#1345=CARTESIAN_POINT('',(-0.00294811427156661,0.0352090959173154,0.0025));
#1346=CARTESIAN_POINT('',(-0.0253436974746238,0.0337198862563853,0.0025));
#1347=CARTESIAN_POINT('',(-0.0104941921059127,0.0368863511815509,0.0025));
#1348=CARTESIAN_POINT('',(-0.0346124551499464,0.0317434435837149,0.0025));
#1349=CARTESIAN_POINT('',(-0.0373720923723882,0.0329200498902223,0.0025));
#1350=CARTESIAN_POINT('',(-0.0353252661236661,0.0307267641570034,0.0025));
#1351=CARTESIAN_POINT('',(-0.0349272103410168,0.00106893108189858,0.0025));
#1352=CARTESIAN_POINT('',(-0.0332409292969101,-0.00520349811572178,0.0025));
#1353=CARTESIAN_POINT('',(-0.0273720903638367,-0.0317318778284446,0.0025));
#1354=CARTESIAN_POINT('',(-0.0285241361707449,-0.0345018580555916,0.0025));
#1355=CARTESIAN_POINT('',(-0.0262523738686565,-0.0325424969243015,0.0025));
#1356=CARTESIAN_POINT('',(-0.00844844609551025,-0.0352102140647122,0.0025));
#1357=CARTESIAN_POINT('',(-0.0131759035283162,-0.0345018580555916,0.0025));
#1358=CARTESIAN_POINT('',(0.00147586382925508,-0.0345018580555916,0.0025));
#1359=CARTESIAN_POINT('',(-0.0285241361707449,-0.0345018580555916,0.018));
#1360=CARTESIAN_POINT('',(-0.0285241361707449,-0.0345018580555916,0.018));
#1361=CARTESIAN_POINT('',(-0.0255241361707449,-0.0345018580555916,0.018));
#1362=CARTESIAN_POINT('',(-0.0285241361707449,-0.0345018580555916,0.0106675562539915));
#1363=CARTESIAN_POINT('',(-0.0268243910779523,-0.0369738747666045,0.0016052303540228));
#1364=CARTESIAN_POINT('',(-0.0271218326787139,-0.0371539411832928,0.));
#1365=CARTESIAN_POINT('',(-0.0285241361707449,-0.0345018580555916,0.0170138454588533));
#1366=CARTESIAN_POINT('',(-0.0255265607625534,-0.0346224469116513,0.0135557817009675));
#1367=CARTESIAN_POINT('',(-0.0285241361707449,-0.0345018580555916,0.0153985880196477));
#1368=CARTESIAN_POINT('',(-0.0285241361707449,-0.0345018580555916,0.0122726425585801));
#1369=CARTESIAN_POINT('',(-0.0292354201603778,-0.0315873983996533,0.012641000401536));
#1370=CARTESIAN_POINT('',(-0.0285241361707449,-0.0345018580555916,0.0164527070432668));
#1371=CARTESIAN_POINT('',(-0.0314351858063379,-0.033776744258237,0.));
#1372=CARTESIAN_POINT('',(-0.0285241361707449,-0.0345018580555916,0.));
#1373=CARTESIAN_POINT('',(0.031475863829255,0.0374981419444084,0.018));
#1374=CARTESIAN_POINT('',(0.031475863829255,0.0374981419444084,0.018));
#1375=CARTESIAN_POINT('',(0.034475863829255,0.0374981419444084,0.018));
#1376=CARTESIAN_POINT('',(0.031475863829255,0.0374981419444084,0.0140764122976888));
#1377=CARTESIAN_POINT('',(0.0316989162577086,0.0345064455002215,0.0132686614801091));
#1378=CARTESIAN_POINT('',(0.031475863829255,0.0374981419444084,0.0170138454588532));
#1379=CARTESIAN_POINT('',(0.034443278081063,0.0370571740791764,0.));
#1380=CARTESIAN_POINT('',(0.031475863829255,0.0374981419444084,0.));
#1381=CARTESIAN_POINT('',(0.0315665078880569,0.0404967722408278,0.));
#1382=CARTESIAN_POINT('',(0.031475863829255,0.0374981419444084,0.011304700549714));
#1383=CARTESIAN_POINT('',(0.0314424451645236,0.0404979558041084,0.000535403671595256));
#1384=CARTESIAN_POINT('',(0.031475863829255,0.0374981419444084,0.0169830228151207));
#1385=CARTESIAN_POINT('',(0.0308515059688518,0.0404324522998672,0.));
#1386=CARTESIAN_POINT('',(0.0293770892743918,0.0400246268856944,0.));
#1387=CARTESIAN_POINT('',(0.0305035738745594,0.0403362138680915,0.));
#1388=CARTESIAN_POINT('',(0.031475863829255,0.0374981419444084,0.0169830228151207));
#1389=CARTESIAN_POINT('',(0.0284794037131668,0.0376438360509897,0.0116562685556899));
#1390=CARTESIAN_POINT('',(0.031475863829255,0.0374981419444084,0.012172610063236));
#1391=CARTESIAN_POINT('',(-0.0373720923723882,0.0329200498902223,0.018));
#1392=CARTESIAN_POINT('',(-0.0373720923723882,0.0329200498902223,0.018));
#1393=CARTESIAN_POINT('',(-0.0343720923723882,0.0329200498902223,0.018));
#1394=CARTESIAN_POINT('',(-0.0373720923723882,0.0329200498902223,0.0167488063189597));
#1395=CARTESIAN_POINT('',(-0.0371951216268289,0.0299252742132783,0.0131645245965263));
#1396=CARTESIAN_POINT('',(-0.0400760081580041,0.0316204963421539,0.));
#1397=CARTESIAN_POINT('',(-0.0373720923723882,0.0329200498902223,0.0139401502258628));
#1398=CARTESIAN_POINT('',(-0.0373720923723882,0.0329200498902223,0.0122900678900923));
#1399=CARTESIAN_POINT('',(-0.0344204671420213,0.0334566209474566,0.011775207307063));
#1400=CARTESIAN_POINT('',(-0.0373720923723882,0.0329200498902223,0.0170137846186222));
#1401=CARTESIAN_POINT('',(-0.0369658376635563,0.0358924154652404,6.95873518726505E-24));
#1402=CARTESIAN_POINT('',(-0.0373720923723882,0.0329200498902223,0.));
#1403=CARTESIAN_POINT('',(0.0324258638292551,0.0374981419444084,0.008));
#1404=CARTESIAN_POINT('',(0.0314758638292551,0.0374981419444084,0.008));
#1405=CARTESIAN_POINT('',(0.0314414835766759,0.0384475196343889,0.008));
#1406=CARTESIAN_POINT('',(0.0324042055747273,0.037296445133294,0.008));
#1407=CARTESIAN_POINT('',(0.0323138604552157,0.0374044658948208,0.008));
#1408=CARTESIAN_POINT('',(0.0314758638292551,0.0374981419444084,0.018));
#1409=CARTESIAN_POINT('',(0.0314758638292551,0.0374981419444084,0.018));
#1410=CARTESIAN_POINT('',(0.0305258638292551,0.0374981419444084,0.018));
#1411=CARTESIAN_POINT('',(0.0314758638292551,0.0374981419444084,0.011304700549714));
#1412=CARTESIAN_POINT('',(0.0316062432516014,0.0365571312078976,0.0141613331982863));
#1413=CARTESIAN_POINT('',(0.0314758638292551,0.0374981419444084,0.0140764122976889));
#1414=CARTESIAN_POINT('',(0.0306532610609309,0.0370229317955844,0.00911807694344692));
#1415=CARTESIAN_POINT('',(0.0314758638292551,0.0374981419444084,0.012172610063236));
#1416=CARTESIAN_POINT('',(0.0305918833816071,0.037846105402513,0.0137445408242607));
#1417=CARTESIAN_POINT('',(0.0314758638292551,0.0374981419444084,0.0169830228151207));
#1418=CARTESIAN_POINT('',(0.030657811497034,0.037981143374787,0.0131060958224144));
#1419=CARTESIAN_POINT('',(0.0314758638292551,0.0374981419444084,0.011304700549714));
#1420=CARTESIAN_POINT('',(-0.0275741361707449,-0.0345018580555916,0.008));
#1421=CARTESIAN_POINT('',(-0.0285241361707449,-0.0345018580555916,0.008));
#1422=CARTESIAN_POINT('',(-0.027952160974657,-0.0352603726401977,0.008));
#1423=CARTESIAN_POINT('',(-0.0294682636126714,-0.0346073254600406,0.008));
#1424=CARTESIAN_POINT('',(-0.0279088880603995,-0.0352790120475336,0.008));
#1425=CARTESIAN_POINT('',(-0.0285241361707449,-0.0345018580555916,0.018));
#1426=CARTESIAN_POINT('',(-0.0285241361707449,-0.0345018580555916,0.018));
#1427=CARTESIAN_POINT('',(-0.0294741361707449,-0.0345018580555916,0.018));
#1428=CARTESIAN_POINT('',(-0.0285241361707449,-0.0345018580555916,0.0106675562539915));
#1429=CARTESIAN_POINT('',(-0.0291730090651007,-0.0338079820097662,0.0128259089044086));
#1430=CARTESIAN_POINT('',(-0.0285241361707449,-0.0345018580555916,0.0164527070432668));
#1431=CARTESIAN_POINT('',(-0.028993000969093,-0.0336756221323408,0.0138567676332512));
#1432=CARTESIAN_POINT('',(-0.0285241361707449,-0.0345018580555916,0.0122726425585801));
#1433=CARTESIAN_POINT('',(-0.0283231122315632,-0.0335733703734569,0.0100220679084909));
#1434=CARTESIAN_POINT('',(-0.0285241361707449,-0.0345018580555916,0.0153985880196477));
#1435=CARTESIAN_POINT('',(-0.0275896414641185,-0.0343309205135267,0.0136545105646079));
#1436=CARTESIAN_POINT('',(-0.0285241361707449,-0.0345018580555916,0.0106675562539915));
#1437=CARTESIAN_POINT('',(0.00147586382925508,-0.0345018580555916,0.0025));
#1438=CARTESIAN_POINT('',(0.00147586382925508,-0.0345018580555916,0.));
#1439=CARTESIAN_POINT('',(-0.0102011142298579,-0.0345018580555916,0.));
#1440=CARTESIAN_POINT('',(0.0166880148677714,-0.0345018580555916,0.));
#1441=CARTESIAN_POINT('',(0.0105512353087171,-0.0345018580555916,-0.00631677303650549));
#1442=CARTESIAN_POINT('',(-0.00458886189604322,-0.0345018580555916,-0.00471651247428104));
#1443=CARTESIAN_POINT('',(-0.00294811427156661,0.0352090959173154,0.0025));
#1444=CARTESIAN_POINT('',(0.00618556872332213,0.0358164464306972,-0.00864508299749997));
#1445=CARTESIAN_POINT('',(0.0166880148677716,0.0365148137882205,0.));
#1446=CARTESIAN_POINT('',(-0.00294811427156661,0.0352090959173154,0.));
#1447=CARTESIAN_POINT('',(-0.0222721164006209,0.0339241331459733,0.));
#1448=CARTESIAN_POINT('',(-0.0118486283110467,0.034617250133499,-0.00848381325321004));
#1449=CARTESIAN_POINT('',(-0.0029481142715666,0.00149814194440841,0.));
#1450=CARTESIAN_POINT('',(0.0293770892743918,0.0400246268856944,0.));
#1451=CARTESIAN_POINT('',(0.0293770892743918,0.0400246268856944,0.));
#1452=CARTESIAN_POINT('',(0.031475863829255,0.0406051504278576,0.));
#1453=CARTESIAN_POINT('',(0.0387461108655018,0.0319125101879726,0.));
#1454=CARTESIAN_POINT('',(0.032959570955159,0.027072832774399,0.));
#1455=CARTESIAN_POINT('',(0.0344825769478123,-0.0343145670559199,0.));
#1456=CARTESIAN_POINT('',(0.0344405955499312,-0.0340432015126137,0.));
#1457=CARTESIAN_POINT('',(0.0314758638292551,-0.0345018580555916,0.));
#1458=CARTESIAN_POINT('',(0.0308672560443473,-0.0374394755535224,0.));
#1459=CARTESIAN_POINT('',(0.0237776354560594,-0.0359706668045571,0.));
#1460=CARTESIAN_POINT('',(-0.029088078723922,-0.0376364919841339,0.));
#1461=CARTESIAN_POINT('',(-0.0268600355820692,-0.0372667078598029,0.));
#1462=CARTESIAN_POINT('',(-0.0361783305135392,-0.0332529385566651,0.));
#1463=CARTESIAN_POINT('',(-0.031585331056393,-0.0225899132730967,0.));
#1464=CARTESIAN_POINT('',(-0.0374962428461207,0.0223454431907237,0.));
#1465=CARTESIAN_POINT('',(-0.0357042103282911,0.0357234154731301,0.));
#1466=CARTESIAN_POINT('',(-0.00294811427156659,0.00149814194440843,0.018));
#1467=CARTESIAN_POINT('',(0.0314758638292551,-0.0345018580555916,0.018));
#1468=CARTESIAN_POINT('',(0.0314758638292551,-0.0345018580555916,0.018));
#1469=CARTESIAN_POINT('',(0.0344758638292551,-0.0345018580555916,0.018));
#1470=CARTESIAN_POINT('',(0.0314758638292551,-0.0345018580555916,0.0152215807475106));
#1471=CARTESIAN_POINT('',(0.0284786122861214,-0.0346302449208962,0.0128524438861299));
#1472=CARTESIAN_POINT('',(0.0314758638292551,-0.0345018580555916,0.0170138454588533));
#1473=CARTESIAN_POINT('',(0.0314758638292551,-0.0345018580555916,0.0170138454588532));
#1474=CARTESIAN_POINT('',(0.0318845472733255,-0.0315298254443064,0.0121464130649467));
#1475=CARTESIAN_POINT('',(0.0314758638292551,-0.0345018580555916,0.0115978956148984));
#1476=CARTESIAN_POINT('',(-0.00294811427156659,0.00149814194440843,0.018));
#1477=CARTESIAN_POINT('',(0.0314758638292551,-0.0345018580555916,0.018));
#1478=CARTESIAN_POINT('',(0.0305258638292551,-0.0345018580555916,0.018));
#1479=CARTESIAN_POINT('',(-0.00294811427156659,0.00149814194440843,0.018));
#1480=CARTESIAN_POINT('',(-0.00294811427156659,0.00149814194440843,0.018));
#1481=CARTESIAN_POINT('',(-0.0373720923723882,0.0329200498902223,0.018));
#1482=CARTESIAN_POINT('',(-0.0383220923723882,0.0329200498902223,0.018));
#1483=CARTESIAN_POINT('',(-0.0364220923723882,0.0329200498902223,0.008));
#1484=CARTESIAN_POINT('',(-0.0371987786164521,0.0337251668944717,0.008));
#1485=CARTESIAN_POINT('',(-0.0370922780296652,0.0338279066705608,0.008));
#1486=CARTESIAN_POINT('',(-0.0382894180882716,0.0326730407183702,0.008));
#1487=CARTESIAN_POINT('',(-0.0373720923723882,0.0329200498902223,0.008));
#1488=CARTESIAN_POINT('',(-0.0373720923723882,0.0329200498902223,0.018));
#1489=CARTESIAN_POINT('',(-0.0373720923723882,0.0329200498902223,0.0106037612566971));
#1490=CARTESIAN_POINT('',(-0.0364719018992591,0.0332236237891128,0.0129091769509133));
#1491=CARTESIAN_POINT('',(-0.0373720923723882,0.0329200498902223,0.0122900678900923));
#1492=CARTESIAN_POINT('',(-0.0365084957499402,0.0325241952784059,0.00907302031204177));
#1493=CARTESIAN_POINT('',(-0.0373720923723882,0.0329200498902223,0.0139401502258628));
#1494=CARTESIAN_POINT('',(-0.0374203765754646,0.0319712777174995,0.0142861707554117));
#1495=CARTESIAN_POINT('',(-0.0373720923723882,0.0329200498902223,0.0106037612566971));
#1496=CARTESIAN_POINT('',(0.0324258638292551,-0.0345018580555916,0.008));
#1497=CARTESIAN_POINT('',(0.0321812435649292,-0.0342444844621026,0.008));
#1498=CARTESIAN_POINT('',(0.0310286191789438,-0.0353399942156324,0.008));
#1499=CARTESIAN_POINT('',(0.0323356289227796,-0.0340977491792267,0.008));
#1500=CARTESIAN_POINT('',(0.0314758638292551,-0.0345018580555916,0.008));
#1501=CARTESIAN_POINT('',(0.0314758638292551,-0.0345018580555916,0.018));
#1502=CARTESIAN_POINT('',(0.0314758638292551,-0.0345018580555916,0.00969796131687678));
#1503=CARTESIAN_POINT('',(0.0305299653621615,-0.0344136759148257,0.0137561392040558));
#1504=CARTESIAN_POINT('',(0.0314758638292551,-0.0345018580555916,0.0152215807475105));
#1505=CARTESIAN_POINT('',(0.0312610766477805,-0.0335764573495868,0.00983945211964893));
#1506=CARTESIAN_POINT('',(0.0314758638292551,-0.0345018580555916,0.0115978956148983));
#1507=CARTESIAN_POINT('',(0.0317279382081734,-0.0335859112735715,0.0124783251916698));
#1508=CARTESIAN_POINT('',(0.0314758638292551,-0.0345018580555916,0.00969796131687678));
#1509=CARTESIAN_POINT('',(-0.0290663630933589,-0.0220326452675604,0.));
#1510=CARTESIAN_POINT('',(-0.030685610277015,-0.0190953122639766,0.00536808766628395));
#1511=CARTESIAN_POINT('',(-0.0289916907962292,-0.0336869080955255,0.0138633383392552));
#1512=CARTESIAN_POINT('',(-0.0267678711039481,-0.03637642812724,0.00484391573665439));
#1513=CARTESIAN_POINT('',(-0.0287273943019022,-0.0340065521378332,0.0127913981172152));
#1514=CARTESIAN_POINT('',(-0.0266872301958848,-0.0318205489685094,-0.00118371605198718));
#1515=CARTESIAN_POINT('',(-0.0328614399201441,-0.0311064646333353,0.));
#1516=CARTESIAN_POINT('',(-0.0392113359021107,-0.0310176260769242,0.00483815889655697));
#1517=CARTESIAN_POINT('',(-0.0361783305135392,-0.0332529385566651,0.));
#1518=CARTESIAN_POINT('',(-0.0311712875106369,-0.0351423174556627,0.00139257187046556));
#1519=CARTESIAN_POINT('',(-0.031585331056393,-0.0225899132730967,0.));
#1520=CARTESIAN_POINT('',(0.0292061217089388,-0.0365395108541588,0.));
#1521=CARTESIAN_POINT('',(0.0295387180762272,-0.0319836270429074,-0.000816779373915254));
#1522=CARTESIAN_POINT('',(0.0315850474976625,-0.0338760642936318,0.0118438595819095));
#1523=CARTESIAN_POINT('',(0.0287947586098477,-0.0395420081800138,-0.000545625600748392));
#1524=CARTESIAN_POINT('',(0.027875904611396,-0.0402826000881746,0.));
#1525=CARTESIAN_POINT('',(0.0345477938439641,-0.0323664122837764,0.00647404118295542));
#1526=CARTESIAN_POINT('',(0.0232819315582305,-0.0332848578101456,0.));
#1527=CARTESIAN_POINT('',(0.0336006204614748,0.0351770072698011,0.));
#1528=CARTESIAN_POINT('',(0.02513780985045,0.037323879350926,0.00835296680060584));
#1529=CARTESIAN_POINT('',(0.0306164456761761,0.0378484572355122,0.0137688216537367));
#1530=CARTESIAN_POINT('',(0.0293120000818273,0.0356227528121845,0.000602171509386461));
#1531=CARTESIAN_POINT('',(0.0311701838581416,0.0375625616274895,0.0124001120778008));
#1532=CARTESIAN_POINT('',(0.0367480299816941,0.0346827137844352,-0.0013870018526601));
#1533=CARTESIAN_POINT('',(0.0293770892743918,0.0400246268856944,0.));
#1534=CARTESIAN_POINT('',(0.0313989412908887,0.0403584115882218,0.0012323834539981));
#1535=CARTESIAN_POINT('',(0.0387461108655018,0.0319125101879726,0.));
#1536=CARTESIAN_POINT('',(0.030020301170372,0.0402138679646207,0.00775579594528525));
#1537=CARTESIAN_POINT('',(0.0302926069094251,0.02674607358945,0.));
#1538=CARTESIAN_POINT('',(-0.0347724088426556,0.0223820014204942,0.));
#1539=CARTESIAN_POINT('',(-0.0349990878368895,0.0313193856533251,0.000605212672705535));
#1540=CARTESIAN_POINT('',(-0.0370197520308831,0.0329322801193806,0.0119411779545157));
#1541=CARTESIAN_POINT('',(-0.0357100167530184,0.0360740215949835,0.00427484837183763));
#1542=CARTESIAN_POINT('',(-0.0440184122543463,0.0291063579555877,0.));
#1543=CARTESIAN_POINT('',(-0.0438605796736549,0.0292943658169004,-0.000145912858262625));
#1544=CARTESIAN_POINT('',(-0.0391957311640056,0.0303153912232836,0.));
#1545=CARTESIAN_POINT('',(-0.0357042103282911,0.0357234154731301,0.));
#1546=CARTESIAN_POINT('',(-0.0291566589860997,0.0336591912037761,0.00667307998295181));
#1547=CARTESIAN_POINT('',(-0.0391957311640056,0.0303153912232836,0.));
#1548=CARTESIAN_POINT('',(-0.0374962428461207,0.0223454431907237,0.));
#1549=CARTESIAN_POINT('',(-0.0355825470124965,0.0186738210739693,0.00487634090239156));
#1550=CARTESIAN_POINT('',(-0.0347724088426556,0.0223820014204942,0.));
#1551=CARTESIAN_POINT('',(0.032959570955159,0.027072832774399,0.));
#1552=CARTESIAN_POINT('',(0.0315539922367437,0.0231894652162696,0.00464760414461354));
#1553=CARTESIAN_POINT('',(0.0302926069094251,0.02674607358945,0.));
#1554=CARTESIAN_POINT('',(0.0336006204614748,0.0351770072698011,0.));
#1555=CARTESIAN_POINT('',(0.02513780985045,0.037323879350926,0.00835296680060584));
#1556=CARTESIAN_POINT('',(0.0293770892743918,0.0400246268856944,0.));
#1557=CARTESIAN_POINT('',(0.0387461108655018,0.0319125101879726,0.));
#1558=CARTESIAN_POINT('',(0.0313989412908887,0.0403584115882218,0.0012323834539981));
#1559=CARTESIAN_POINT('',(0.0293770892743918,0.0400246268856944,0.));
#1560=CARTESIAN_POINT('',(0.0237776354560594,-0.0359706668045571,0.));
#1561=CARTESIAN_POINT('',(0.0196951549296088,-0.0345346025614357,0.00327795933752662));
#1562=CARTESIAN_POINT('',(0.0232819315582305,-0.0332848578101456,0.));
#1563=CARTESIAN_POINT('',(0.0292061217089388,-0.0365395108541588,0.));
#1564=CARTESIAN_POINT('',(0.0317882709899994,-0.0276073576885498,0.00928500156760517));
#1565=CARTESIAN_POINT('',(0.0344825769478123,-0.0343145670559199,0.));
#1566=CARTESIAN_POINT('',(-0.0328614399201441,-0.0311064646333353,0.));
#1567=CARTESIAN_POINT('',(-0.0228991391405725,-0.0346017729451795,0.0112317545433907));
#1568=CARTESIAN_POINT('',(-0.029088078723922,-0.0376364919841339,0.));
#1569=CARTESIAN_POINT('',(-0.0268487523551851,-0.0371740118801109,0.000508133826926055));
#1570=CARTESIAN_POINT('',(-0.0361783305135392,-0.0332529385566651,0.));
#1571=CARTESIAN_POINT('',(-0.031585331056393,-0.0225899132730967,0.));
#1572=CARTESIAN_POINT('',(-0.030685610277015,-0.0190953122639766,0.00536808766628395));
#1573=CARTESIAN_POINT('',(-0.0290663630933589,-0.0220326452675604,0.));
#1574=MECHANICAL_DESIGN_GEOMETRIC_PRESENTATION_REPRESENTATION('',(#897),
#1575);
#1575=(
GEOMETRIC_REPRESENTATION_CONTEXT(3)
GLOBAL_UNCERTAINTY_ASSIGNED_CONTEXT((#1576))
GLOBAL_UNIT_ASSIGNED_CONTEXT((#1579,#1578,#1577))
REPRESENTATION_CONTEXT('Part 1','TOP_LEVEL_ASSEMBLY_PART')
);
#1576=UNCERTAINTY_MEASURE_WITH_UNIT(LENGTH_MEASURE(1.61165104126828E-5),
#1579,'DISTANCE_ACCURACY_VALUE','Maximum Tolerance applied to model');
#1577=(
NAMED_UNIT(*)
SI_UNIT($,.STERADIAN.)
SOLID_ANGLE_UNIT()
);
#1578=(
NAMED_UNIT(*)
PLANE_ANGLE_UNIT()
SI_UNIT($,.RADIAN.)
);
#1579=(
LENGTH_UNIT()
NAMED_UNIT(*)
SI_UNIT($,.METRE.)
);
#1580=PRODUCT_DEFINITION_SHAPE('','',#1581);
#1581=PRODUCT_DEFINITION('','',#1583,#1582);
#1582=PRODUCT_DEFINITION_CONTEXT('',#1589,'design');
#1583=PRODUCT_DEFINITION_FORMATION_WITH_SPECIFIED_SOURCE('','',#1585,
 .NOT_KNOWN.);
#1584=PRODUCT_RELATED_PRODUCT_CATEGORY('','',(#1585));
#1585=PRODUCT('Part 1','Part 1','Part 1',(#1587));
#1586=PRODUCT_CATEGORY('','');
#1587=PRODUCT_CONTEXT('',#1589,'mechanical');
#1588=APPLICATION_PROTOCOL_DEFINITION('international standard',
'ap242_managed_model_based_3d_engineering',2020,#1589);
#1589=APPLICATION_CONTEXT('managed model based 3d engineering');
ENDSEC;
END-ISO-10303-21;
